<?xml version="1.0" encoding="UTF-8" standalone="no"?>
<!-- Created with Inkscape (http://www.inkscape.org/) -->

<svg
   xmlns:dc="http://purl.org/dc/elements/1.1/"
   xmlns:cc="http://creativecommons.org/ns#"
   xmlns:rdf="http://www.w3.org/1999/02/22-rdf-syntax-ns#"
   xmlns:svg="http://www.w3.org/2000/svg"
   xmlns="http://www.w3.org/2000/svg"
   xmlns:sodipodi="http://sodipodi.sourceforge.net/DTD/sodipodi-0.dtd"
   xmlns:inkscape="http://www.inkscape.org/namespaces/inkscape"
   width="42.552612mm"
   height="18.030994mm"
   viewBox="0 0 42.552612 18.030994"
   version="1.1"
   id="svg1359"
   inkscape:version="0.92.4 (5da689c313, 2019-01-14)"
   sodipodi:docname="briquettes-24.svg">
  <defs
     id="defs1353" />
  <sodipodi:namedview
     id="base"
     pagecolor="#ffffff"
     bordercolor="#666666"
     borderopacity="1.0"
     inkscape:pageopacity="0.0"
     inkscape:pageshadow="2"
     inkscape:zoom="0.35"
     inkscape:cx="-275.29991"
     inkscape:cy="-151.63997"
     inkscape:document-units="mm"
     inkscape:current-layer="layer1"
     showgrid="false"
     fit-margin-top="0"
     fit-margin-left="0"
     fit-margin-right="0"
     fit-margin-bottom="0"
     inkscape:window-width="1366"
     inkscape:window-height="705"
     inkscape:window-x="-8"
     inkscape:window-y="-8"
     inkscape:window-maximized="1" />
  <metadata
     id="metadata1356">
    <rdf:RDF>
      <cc:Work
         rdf:about="">
        <dc:format>image/svg+xml</dc:format>
        <dc:type
           rdf:resource="http://purl.org/dc/dcmitype/StillImage" />
        <dc:title></dc:title>
      </cc:Work>
    </rdf:RDF>
  </metadata>
  <g
     inkscape:label="Layer 1"
     inkscape:groupmode="layer"
     id="layer1"
     transform="translate(-55.830838,-90.680929)">
    <path
       sodipodi:nodetypes="sccssss"
       inkscape:connector-curvature="0"
       id="rect892"
       d="m 58.834608,90.680929 h 35.305261 c -8.46741,2.26341 -10.37246,11.050511 -3.48497,14.694771 H 58.834608 c -1.66409,0 -3.00377,-1.38373 -3.00377,-3.10254 v -8.489661 c 0,-1.71882 1.33968,-3.10257 3.00377,-3.10257 z"
       style="fill:#ffffff;fill-opacity:1;stroke:none;stroke-width:0.54648608;stroke-opacity:1"
       inkscape:export-xdpi="96"
       inkscape:export-ydpi="96" />
    <path
       style="font-style:normal;font-variant:normal;font-weight:bold;font-stretch:normal;font-size:9.29898071px;line-height:1.25;font-family:'Bowlby One SC';-inkscape-font-specification:'Bowlby One SC Bold';fill:#0e7a3c;fill-opacity:1;stroke:none;stroke-width:0.77491504;stroke-opacity:1"
       d="m 68.176368,92.707989 c -0.30271,0 -0.60687,0.0288 -0.9126,0.0863 -0.30573,0.0545 -0.62077,0.15442 -0.94464,0.29972 -0.3239,0.14227 -0.61124,0.32207 -0.86249,0.54002 -0.25125,0.21492 -0.46471,0.49954 -0.64027,0.8537 -0.17557,0.35113 -0.27876,0.74764 -0.30903,1.18959 v 0.39945 c 0,0.25125 0.0109,0.4935 0.032,0.72658 0.0242,0.23005 0.0682,0.4799 0.13176,0.7493 0.0666,0.26638 0.15296,0.51298 0.25893,0.74001 0.10593,0.224 0.24823,0.44344 0.42682,0.65836 0.1786,0.21189 0.38447,0.39221 0.61754,0.54054 0.2331,0.14832 0.51879,0.2662 0.85783,0.35398 0.33904,0.0908 0.71435,0.13642 1.12604,0.13642 0.44193,0 0.84931,-0.0565 1.22164,-0.16846 0.37533,-0.112 0.70993,-0.2766 1.00353,-0.49455 0.29364,-0.22097 0.53425,-0.50558 0.72192,-0.85369 0.18767,-0.35113 0.30718,-0.75363 0.35864,-1.20768 v -5.3e-4 c -0.009,-0.112 -0.0634,-0.1723 -0.1633,-0.18138 h -2.47012 c -0.0393,0.0394 -0.0757,0.11375 -0.10904,0.22273 -0.0333,0.10594 -0.0632,0.20699 -0.0904,0.30385 -0.0242,0.0969 -0.0715,0.18485 -0.14108,0.26355 -0.0696,0.0787 -0.15872,0.11783 -0.26768,0.11783 -0.39957,-0.0212 -0.59946,-0.40848 -0.59946,-1.16221 0,-0.0605 0.003,-0.13929 0.009,-0.23616 0.006,-0.0969 0.009,-0.16366 0.009,-0.19999 0.003,-0.0666 0.005,-0.17089 0.009,-0.31315 0.003,-0.1453 0.006,-0.26045 0.009,-0.3452 0.006,-0.0878 0.0153,-0.19371 0.0274,-0.31781 0.0151,-0.12714 0.0374,-0.22981 0.0677,-0.30851 0.0333,-0.0787 0.0745,-0.15584 0.123,-0.23151 0.0484,-0.0787 0.11308,-0.13627 0.19481,-0.1726 0.0817,-0.0363 0.17733,-0.0548 0.28628,-0.0548 0.10899,0 0.19373,0.0337 0.25427,0.10025 0.0635,0.0636 0.10427,0.14232 0.12247,0.23616 0.0211,0.0938 0.038,0.18728 0.0501,0.28112 0.0151,0.0938 0.0423,0.17422 0.0817,0.24081 0.0424,0.0636 0.10268,0.0956 0.18137,0.0956 0.0151,0 0.038,-0.002 0.0682,-0.005 0.0303,-0.003 0.0531,-0.005 0.0682,-0.005 0.0878,0 0.27083,0.003 0.5493,0.009 0.28152,0.006 0.50097,0.009 0.65837,0.009 0.66595,0 0.99891,-0.0483 0.99891,-0.14521 v -0.43563 c -0.0363,-0.33902 -0.12105,-0.64482 -0.25424,-0.91725 -0.13319,-0.27545 -0.31787,-0.51933 -0.55399,-0.73122 -0.23608,-0.21189 -0.54189,-0.37538 -0.91725,-0.49041 -0.37233,-0.11805 -0.80198,-0.17673 -1.28932,-0.17673 z m 7.5737,0.11782 c -0.1786,0 -0.44204,0.003 -0.79013,0.009 -0.34811,0.006 -0.61155,0.009 -0.79015,0.009 h -0.76274 c -0.0121,0.0121 -0.0365,0.0485 -0.0729,0.10904 -0.12408,0.3814 -0.35549,1.07014 -0.69453,2.06602 -0.33599,0.99286 -0.61735,1.84671 -0.84439,2.56109 -0.22701,0.71437 -0.4345,1.4178 -0.62217,2.11098 0.0605,0.0848 0.10293,0.13908 0.12711,0.1633 0.0575,0 0.1379,-0.002 0.24082,-0.005 0.10592,-0.003 0.18304,-0.004 0.23151,-0.004 h 0.12711 c 0.13018,0 0.32406,-0.005 0.58137,-0.014 0.25731,-0.009 0.45069,-0.0134 0.58084,-0.0134 h 0.3633 c 0.30575,0 0.47522,-0.0364 0.5085,-0.10904 l 0.23614,-0.96273 h 1.56218 c 0.0848,0 0.16462,0.0636 0.2403,0.19068 0.0757,0.12714 0.1289,0.26672 0.15917,0.41807 v 0.2992 c 0.0152,0.0424 0.0499,0.076 0.10438,0.10026 0.0575,0.0272 0.13139,0.0435 0.22222,0.0496 0.0938,0.009 0.17857,0.0139 0.25424,0.0139 0.0757,0.003 0.16801,0.001 0.27699,-0.005 0.112,-0.003 0.1864,-0.005 0.22273,-0.005 0.12107,0 0.30138,-10e-4 0.54051,-0.004 0.23916,-0.003 0.41895,-0.005 0.54005,-0.005 h 0.41804 c 0.12107,0 0.20256,-0.012 0.24495,-0.0362 0.0454,-0.0212 0.0682,-0.0624 0.0682,-0.12299 l -2.09341,-6.63371 c 0,-0.0333 -0.009,-0.0616 -0.0269,-0.0858 -0.0182,-0.0242 -0.041,-0.0427 -0.0682,-0.0548 -0.0242,-0.0121 -0.0573,-0.0213 -0.0997,-0.0274 -0.0424,-0.006 -0.0788,-0.009 -0.10904,-0.009 -0.0303,-0.003 -0.0683,-0.005 -0.11369,-0.005 z m -16.90905,0.0636 v 1.87999 c 0,0.51762 -0.006,1.28186 -0.0181,2.29289 -0.0121,1.01102 -0.0181,1.77526 -0.0181,2.29288 v 0.1726 h -0.002 c 0,0.0242 0.006,0.0785 0.0181,0.1633 l 0.127109,0.14572 c 0.36324,-0.003 0.95041,-0.0166 1.76165,-0.0408 0.81124,-0.0212 1.43481,-0.032 1.87068,-0.032 0.16952,0 0.41775,0.002 0.74467,0.005 0.32692,0.003 0.56917,0.004 0.72657,0.004 0.12108,0 0.18137,-0.0755 0.18137,-0.22686 0,-0.14529 -0.003,-0.36038 -0.009,-0.64492 -0.006,-0.28454 -0.009,-0.49911 -0.009,-0.6444 v -0.3452 c -0.0303,-0.0848 -0.14491,-0.12713 -0.3447,-0.12713 -0.25426,0 -0.63719,0.012 -1.14874,0.0362 -0.50855,0.0242 -0.89746,0.0367 -1.166861,0.0367 v -0.65422 h 0.117821 c 0.46011,0 1.1684,-0.0239 2.12494,-0.0723 0.0121,0.0121 0.0273,0.0181 0.0455,0.0181 0.0394,0 0.0638,-0.0304 0.0729,-0.0909 0,-0.1453 -0.005,-0.36038 -0.014,-0.64492 -0.009,-0.28454 -0.0134,-0.49911 -0.0134,-0.64441 0,-0.0151 0.002,-0.0396 0.005,-0.0729 0.003,-0.0333 0.005,-0.0572 0.005,-0.0724 0,-0.0545 -0.0152,-0.0941 -0.0455,-0.11834 -0.0303,-0.0242 -0.0906,-0.0362 -0.18138,-0.0362 h -2.161112 c 0,-0.0727 0.003,-0.14705 0.009,-0.22272 0.009,-0.0787 0.0199,-0.1678 0.032,-0.26769 0.0152,-0.10292 0.0255,-0.17842 0.0315,-0.22686 0.64474,0.0242 1.35901,0.0362 2.14302,0.0362 h 0.12711 c 0.0363,0 0.07,-0.003 0.10025,-0.009 0.0303,-0.009 0.0542,-0.0178 0.0724,-0.0269 0.0181,-0.009 0.0333,-0.0243 0.0455,-0.0455 0.0152,-0.0242 0.026,-0.0427 0.032,-0.0548 0.009,-0.0121 0.0147,-0.0333 0.0181,-0.0636 0.003,-0.0333 0.005,-0.0561 0.005,-0.0682 v -0.0724 -0.0682 -1.48931 z m 20.95892,0.0274 c -0.0212,0 -0.0619,0.002 -0.12248,0.005 -0.0575,0 -0.10316,0.001 -0.13642,0.004 -0.0302,0.003 -0.0666,0.008 -0.10903,0.0139 -0.0423,0.006 -0.0739,0.0164 -0.0951,0.0315 -0.0181,0.0151 -0.0274,0.0336 -0.0274,0.0548 v 6.0477 c 0,0.27545 0.0396,0.5177 0.11835,0.72657 h 2.57866 c 0.0938,0 0.14544,-0.0543 0.15451,-0.1633 v -0.5085 c 0,-0.59026 0.012,-1.12311 0.0362,-1.59835 h 0.871782 c 0.172529,-0.0121 0.336018,-0.03 0.490399,-0.0543 0.157398,-0.0242 0.32851,-0.0622 0.51316,-0.11369 0.184629,-0.0545 0.35248,-0.11966 0.503849,-0.19533 0.15436,-0.0757 0.30427,-0.17562 0.44958,-0.29973 0.14833,-0.1241 0.272679,-0.26317 0.372591,-0.41754 0.10292,-0.15741 0.184409,-0.34644 0.244949,-0.56741 0.0636,-0.22097 0.0956,-0.46484 0.0956,-0.73122 0,-0.36022 -0.0608,-0.68395 -0.181901,-0.97152 -0.121069,-0.28756 -0.285669,-0.52221 -0.494558,-0.70383 -0.20883,-0.18162 -0.44836,-0.31958 -0.717761,-0.41341 -0.269431,-0.0969 -0.555149,-0.14521 -0.85783,-0.14521 z m -4.66741,1.43454 0.5855,2.61535 c 0,0.0636 -0.10105,0.1108 -0.30385,0.14107 -0.19979,0.0272 -0.42087,0.0408 -0.66302,0.0408 h -0.29972 l -0.12713,-0.21342 0.3633,-1.57562 c 0.0575,-0.26032 0.13139,-0.49334 0.22219,-0.69918 0.0938,-0.20584 0.16825,-0.30903 0.22273,-0.30903 z m 6.89261,0.0186 c 0.0969,0 0.1751,10e-4 0.23564,0.004 0.0636,0 0.14232,0.006 0.23616,0.0181 0.0969,0.009 0.17563,0.0243 0.23617,0.0455 0.0636,0.0182 0.13036,0.047 0.199969,0.0863 0.0727,0.0393 0.128622,0.0866 0.16796,0.14108 0.0424,0.0515 0.0771,0.11936 0.104381,0.20412 0.0303,0.0817 0.0455,0.17569 0.0455,0.28164 0,0.13924 -0.0245,0.26472 -0.0729,0.37672 -0.0484,0.10897 -0.111969,0.19968 -0.19068,0.27233 -0.0787,0.0696 -0.172141,0.1272 -0.28112,0.1726 -0.108979,0.0454 -0.221379,0.0774 -0.33642,0.0956 -0.112,0.0182 -0.22987,0.0269 -0.35398,0.0269 l -0.14521,-0.19947 c 0,-0.96864 0.0516,-1.47705 0.15452,-1.52549 z"
       id="path1113"
       inkscape:connector-curvature="0" />
    <path
       sodipodi:nodetypes="ccccccc"
       inkscape:connector-curvature="0"
       id="path975"
       d="m 97.354139,101.32219 c 1.033068,-1.845961 -0.16079,-5.068251 -1.72412,-5.786041 0.115458,0.95229 0.243519,2.04476 -0.788991,3.03914 -1.29378,-2.64883 -0.732948,-5.08637 -0.263009,-6.57504 -2.2075,1.27873 -3.123631,3.15471 -3.76969,4.64635 -0.619102,-0.85108 -0.514512,-1.66357 -0.43833,-2.51311 -2.68056,2.00887 -3.021301,4.98572 -2.425441,6.750361"
       style="fill:none;fill-opacity:1;stroke:#ed4020;stroke-width:1.10115612;stroke-linecap:round;stroke-miterlimit:4;stroke-dasharray:none;stroke-opacity:1"
       inkscape:export-xdpi="96"
       inkscape:export-ydpi="96" />
    <path
       sodipodi:nodetypes="cc"
       inkscape:connector-curvature="0"
       id="path977"
       d="m 89.119178,98.120269 c -0.10474,0.61053 -0.33537,1.11007 0.0912,2.084271"
       style="fill:none;fill-opacity:1;stroke:#ed4020;stroke-width:0.42660403;stroke-linecap:round;stroke-miterlimit:4;stroke-dasharray:none;stroke-opacity:1"
       inkscape:export-xdpi="96"
       inkscape:export-ydpi="96" />
    <path
       sodipodi:nodetypes="cc"
       inkscape:connector-curvature="0"
       id="path977-1"
       d="m 96.606709,98.808779 c 0.104641,0.61053 0.0897,1.04867 -0.214021,1.838641"
       style="fill:none;fill-opacity:1;stroke:#ed4020;stroke-width:0.42660403;stroke-linecap:round;stroke-miterlimit:4;stroke-dasharray:none;stroke-opacity:1"
       inkscape:export-xdpi="96"
       inkscape:export-ydpi="96" />
    <g
       aria-label="BRIQUETTES"
       style="font-style:normal;font-variant:normal;font-weight:bold;font-stretch:normal;font-size:3.77015495px;line-height:1.25;font-family:sans-serif;-inkscape-font-specification:'sans-serif Bold';fill:#0e7a3c;fill-opacity:1;stroke:none;stroke-width:2.33333969;stroke-linecap:round;stroke-miterlimit:4;stroke-dasharray:none;stroke-opacity:1"
       id="text1016"
       transform="translate(-225.1601,57.48446)">
      <path
         inkscape:connector-curvature="0"
         d="m 286.31012,45.621554 q 0,0.198817 -0.081,0.355293 -0.0792,0.156476 -0.21906,0.259566 -0.162,0.121499 -0.35714,0.173044 -0.19329,0.05154 -0.49152,0.05154 h -1.19658 v -2.741094 h 1.06404 q 0.33136,0 0.48416,0.02209 0.15463,0.02209 0.30558,0.09757 0.15648,0.07916 0.23196,0.213544 0.0773,0.132545 0.0773,0.303748 0,0.198817 -0.10493,0.351611 -0.10493,0.150954 -0.29638,0.235635 v 0.01473 q 0.26877,0.05339 0.42525,0.220908 0.15831,0.167521 0.15831,0.441815 z m -0.90572,-1.126629 q 0,-0.06811 -0.035,-0.136226 -0.0331,-0.06811 -0.11966,-0.101249 -0.0773,-0.02945 -0.1933,-0.0313 -0.11413,-0.0037 -0.32215,-0.0037 h -0.0663 v 0.579882 h 0.11046 q 0.16752,0 0.28534,-0.0055 0.11781,-0.0055 0.18593,-0.03682 0.0957,-0.04234 0.12518,-0.108612 0.0294,-0.06811 0.0294,-0.156477 z m 0.17305,1.115583 q 0,-0.130703 -0.0516,-0.200657 -0.0497,-0.0718 -0.1712,-0.106772 -0.0828,-0.02393 -0.22827,-0.02577 -0.14543,-0.0018 -0.30375,-0.0018 h -0.15464 v 0.682973 h 0.0515 q 0.29822,0 0.42709,-0.0018 0.12886,-0.0018 0.23747,-0.04786 0.11046,-0.04602 0.15096,-0.1215 0.0423,-0.07732 0.0423,-0.176726 z"
         style="font-style:normal;font-variant:normal;font-weight:bold;font-stretch:normal;font-family:sans-serif;-inkscape-font-specification:'sans-serif Bold';fill:#0e7a3c;fill-opacity:1;stroke-width:2.33333969"
         id="path1122" />
      <path
         inkscape:connector-curvature="0"
         d="m 288.37377,44.559357 q 0,-0.10309 -0.0423,-0.176726 -0.0423,-0.07364 -0.14543,-0.115977 -0.0718,-0.02945 -0.16753,-0.03498 -0.0957,-0.0074 -0.22274,-0.0074 h -0.25589 v 0.738199 h 0.21723 q 0.16936,0 0.2835,-0.01657 0.11413,-0.01657 0.19145,-0.07548 0.0736,-0.05707 0.10677,-0.125181 0.035,-0.06995 0.035,-0.18593 z m 1.10269,1.901645 h -0.86338 l -0.7474,-1.005129 h -0.32584 v 1.005129 h -0.70322 v -2.741094 h 1.18554 q 0.24299,0 0.41788,0.02761 0.17488,0.02761 0.32768,0.119658 0.15463,0.09205 0.24484,0.239316 0.092,0.145431 0.092,0.366339 0,0.303748 -0.14175,0.495201 -0.1399,0.191453 -0.40131,0.318475 z"
         style="font-style:normal;font-variant:normal;font-weight:bold;font-stretch:normal;font-family:sans-serif;-inkscape-font-specification:'sans-serif Bold';fill:#0e7a3c;fill-opacity:1;stroke-width:2.33333969"
         id="path1124" />
      <path
         inkscape:connector-curvature="0"
         d="m 291.27134,46.461002 h -1.60526 v -0.485996 h 0.44918 v -1.769101 h -0.44918 v -0.485997 h 1.60526 v 0.485997 h -0.44918 v 1.769101 h 0.44918 z"
         style="font-style:normal;font-variant:normal;font-weight:bold;font-stretch:normal;font-family:sans-serif;-inkscape-font-specification:'sans-serif Bold';fill:#0e7a3c;fill-opacity:1;stroke-width:2.33333969"
         id="path1126" />
      <path
         inkscape:connector-curvature="0"
         d="m 293.57982,45.785394 q 0.10309,-0.125181 0.1528,-0.294544 0.0497,-0.171203 0.0497,-0.401315 0,-0.24668 -0.0571,-0.419724 -0.0571,-0.173045 -0.14911,-0.279817 -0.0939,-0.110453 -0.21723,-0.160158 -0.1215,-0.0497 -0.25404,-0.0497 -0.13439,0 -0.25404,0.04786 -0.11782,0.04786 -0.21723,0.158317 -0.092,0.10309 -0.15095,0.285338 -0.0571,0.180408 -0.0571,0.419725 0,0.244839 0.0552,0.417883 0.0571,0.171203 0.14911,0.279816 0.092,0.108613 0.21538,0.160158 0.12334,0.05154 0.25957,0.05154 0.13623,0 0.25957,-0.05154 0.12334,-0.05339 0.21538,-0.163839 z m 0.0755,0.642472 q 0.007,0.182249 0.0994,0.261407 0.092,0.07916 0.31479,0.07916 0.0755,0 0.17857,-0.02577 0.10309,-0.02577 0.14359,-0.04602 h 0.07 v 0.485997 q -0.10309,0.02393 -0.22459,0.04234 -0.11966,0.01841 -0.36818,0.01841 -0.21906,0 -0.3829,-0.05523 -0.162,-0.05339 -0.27062,-0.152794 -0.10677,-0.09757 -0.16015,-0.230112 -0.0534,-0.132545 -0.0626,-0.294543 -0.61486,-0.03498 -0.95911,-0.41052 -0.34241,-0.377384 -0.34241,-1.008811 0,-0.660882 0.37554,-1.043788 0.37555,-0.384748 1.03643,-0.384748 0.65904,0 1.03642,0.384748 0.37739,0.382906 0.37739,1.043788 0,0.487837 -0.22091,0.84313 -0.22091,0.353452 -0.64063,0.49336 z"
         style="font-style:normal;font-variant:normal;font-weight:bold;font-stretch:normal;font-family:sans-serif;-inkscape-font-specification:'sans-serif Bold';fill:#0e7a3c;fill-opacity:1;stroke-width:2.33333969"
         id="path1128" />
      <path
         inkscape:connector-curvature="0"
         d="m 297.45491,45.468759 q 0,0.508088 -0.30927,0.778699 -0.30927,0.270612 -0.91125,0.270612 -0.60197,0 -0.91124,-0.270612 -0.30743,-0.270611 -0.30743,-0.776858 v -1.750692 h 0.71059 v 1.710193 q 0,0.285338 0.11965,0.425247 0.11966,0.139908 0.38843,0.139908 0.26509,0 0.38659,-0.134386 0.12334,-0.134385 0.12334,-0.430769 v -1.710193 h 0.71059 z"
         style="font-style:normal;font-variant:normal;font-weight:bold;font-stretch:normal;font-family:sans-serif;-inkscape-font-specification:'sans-serif Bold';fill:#0e7a3c;fill-opacity:1;stroke-width:2.33333969"
         id="path1130" />
      <path
         inkscape:connector-curvature="0"
         d="m 300.10028,46.461002 h -1.98265 v -2.741094 h 1.98265 v 0.530178 h -1.27943 v 0.473111 h 1.18738 v 0.530178 h -1.18738 v 0.677449 h 1.27943 z"
         style="font-style:normal;font-variant:normal;font-weight:bold;font-stretch:normal;font-family:sans-serif;-inkscape-font-specification:'sans-serif Bold';fill:#0e7a3c;fill-opacity:1;stroke-width:2.33333969"
         id="path1132" />
      <path
         inkscape:connector-curvature="0"
         d="m 302.83953,44.250086 h -0.85602 v 2.210916 h -0.7069 v -2.210916 h -0.85602 v -0.530178 h 2.41894 z"
         style="font-style:normal;font-variant:normal;font-weight:bold;font-stretch:normal;font-family:sans-serif;-inkscape-font-specification:'sans-serif Bold';fill:#0e7a3c;fill-opacity:1;stroke-width:2.33333969"
         id="path1134" />
      <path
         inkscape:connector-curvature="0"
         d="m 305.40942,44.250086 h -0.85602 v 2.210916 h -0.7069 v -2.210916 h -0.85602 v -0.530178 h 2.41894 z"
         style="font-style:normal;font-variant:normal;font-weight:bold;font-stretch:normal;font-family:sans-serif;-inkscape-font-specification:'sans-serif Bold';fill:#0e7a3c;fill-opacity:1;stroke-width:2.33333969"
         id="path1136" />
      <path
         inkscape:connector-curvature="0"
         d="m 307.81731,46.461002 h -1.98264 v -2.741094 h 1.98264 v 0.530178 h -1.27942 v 0.473111 h 1.18738 v 0.530178 h -1.18738 v 0.677449 h 1.27942 z"
         style="font-style:normal;font-variant:normal;font-weight:bold;font-stretch:normal;font-family:sans-serif;-inkscape-font-specification:'sans-serif Bold';fill:#0e7a3c;fill-opacity:1;stroke-width:2.33333969"
         id="path1138" />
      <path
         inkscape:connector-curvature="0"
         d="m 310.60627,45.599463 q 0,0.404997 -0.34425,0.659041 -0.34241,0.252203 -0.93149,0.252203 -0.34057,0 -0.59461,-0.05891 -0.25221,-0.06075 -0.47311,-0.152794 v -0.6572 h 0.0773 q 0.21907,0.174885 0.48968,0.26877 0.27246,0.09389 0.52282,0.09389 0.0644,0 0.16936,-0.01105 0.10493,-0.01105 0.1712,-0.03682 0.081,-0.03314 0.13255,-0.08284 0.0534,-0.0497 0.0534,-0.147272 0,-0.0902 -0.0773,-0.154635 -0.0755,-0.06627 -0.22275,-0.10125 -0.15464,-0.03682 -0.32768,-0.06811 -0.17121,-0.03314 -0.32216,-0.08284 -0.34609,-0.112295 -0.49888,-0.303748 -0.15096,-0.193294 -0.15096,-0.478633 0,-0.382906 0.34241,-0.624064 0.34425,-0.242998 0.88363,-0.242998 0.27061,0 0.53386,0.05339 0.26509,0.05154 0.45838,0.130704 v 0.631427 h -0.0755 q -0.16568,-0.132545 -0.40684,-0.220908 -0.23932,-0.0902 -0.48968,-0.0902 -0.0884,0 -0.17672,0.01289 -0.0865,0.01104 -0.16753,0.04418 -0.0718,0.02761 -0.12334,0.08468 -0.0515,0.05523 -0.0515,0.127021 0,0.108613 0.0828,0.167522 0.0828,0.05707 0.31295,0.104931 0.15095,0.03129 0.28902,0.06075 0.13991,0.02945 0.30007,0.081 0.31479,0.10309 0.4639,0.281657 0.15096,0.176726 0.15096,0.460224 z"
         style="font-style:normal;font-variant:normal;font-weight:bold;font-stretch:normal;font-family:sans-serif;-inkscape-font-specification:'sans-serif Bold';fill:#0e7a3c;fill-opacity:1;stroke-width:2.33333969"
         id="path1140" />
    </g>
    <g
       aria-label="smokeless, ordourless, burns long"
       style="font-style:normal;font-variant:normal;font-weight:bold;font-stretch:normal;font-size:2.21602631px;line-height:1.25;font-family:sans-serif;-inkscape-font-specification:'sans-serif Bold';fill:#222222;fill-opacity:0.68627451;stroke:none;stroke-width:1.37149334;stroke-linecap:round;stroke-miterlimit:4;stroke-dasharray:none;stroke-opacity:1"
       id="text1054"
       transform="translate(-233.9008,164.76509)">
      <path
         d="m 291.04532,-56.89608 q 0,0.188276 -0.1688,0.304055 -0.1688,0.114696 -0.46203,0.114696 -0.16231,0 -0.29432,-0.0303 -0.13201,-0.0303 -0.21208,-0.06709 v -0.320286 h 0.0357 q 0.0292,0.02056 0.0671,0.04545 0.0389,0.02381 0.10928,0.05194 0.0606,0.02489 0.13742,0.04328 0.0768,0.01731 0.16447,0.01731 0.1147,0 0.16988,-0.02489 0.0552,-0.02597 0.0552,-0.07574 0,-0.04436 -0.0325,-0.06384 -0.0325,-0.02056 -0.12336,-0.03895 -0.0433,-0.0097 -0.11794,-0.02056 -0.0736,-0.0119 -0.13417,-0.02813 -0.16556,-0.04328 -0.24563,-0.134174 -0.0801,-0.09197 -0.0801,-0.228311 0,-0.175291 0.16556,-0.29107 0.16663,-0.116861 0.45445,-0.116861 0.13634,0 0.26078,0.02813 0.12551,0.02705 0.19585,0.05843 v 0.3073 h -0.0335 q -0.0866,-0.05951 -0.19801,-0.0963 -0.11037,-0.03787 -0.22398,-0.03787 -0.0941,0 -0.15906,0.02597 -0.0639,0.02597 -0.0639,0.07358 0,0.04328 0.0292,0.066 0.0292,0.02272 0.13742,0.04545 0.0595,0.0119 0.12768,0.02381 0.0692,0.01082 0.1385,0.02813 0.15365,0.04003 0.22723,0.126599 0.0736,0.08548 0.0736,0.214244 z"
         style="fill:#222222;fill-opacity:0.68627451;stroke-width:1.37149334"
         id="path1232"
         inkscape:connector-curvature="0" />
      <path
         d="m 292.4931,-57.372179 v 0.861307 h -0.3917 v -0.607027 q 0,-0.08873 -0.004,-0.150404 -0.004,-0.06276 -0.0238,-0.101712 -0.0195,-0.03895 -0.0595,-0.05627 -0.0389,-0.01839 -0.11037,-0.01839 -0.0574,0 -0.11145,0.02381 -0.0541,0.02272 -0.0974,0.04869 v 0.861307 h -0.38954 v -1.215135 h 0.38954 v 0.134173 q 0.10063,-0.07899 0.1926,-0.123353 0.092,-0.04436 0.20342,-0.04436 0.12011,0 0.21209,0.0541 0.092,0.05302 0.14391,0.156897 0.11686,-0.09847 0.22723,-0.154732 0.11037,-0.05627 0.21641,-0.05627 0.19693,0 0.29864,0.117943 0.10279,0.117943 0.10279,0.339762 v 0.790974 h -0.3917 v -0.607027 q 0,-0.08981 -0.004,-0.151486 -0.003,-0.06168 -0.0227,-0.10063 -0.0184,-0.03895 -0.0584,-0.05627 -0.04,-0.01839 -0.11253,-0.01839 -0.0487,0 -0.0952,0.01731 -0.0465,0.01623 -0.11361,0.05518 z"
         style="fill:#222222;fill-opacity:0.68627451;stroke-width:1.37149334"
         id="path1234"
         inkscape:connector-curvature="0" />
      <path
         d="m 294.89307,-57.117899 q 0,0.299727 -0.17529,0.472854 -0.17421,0.172045 -0.49017,0.172045 -0.31595,0 -0.49125,-0.172045 -0.1742,-0.173127 -0.1742,-0.472854 0,-0.30189 0.17529,-0.473935 0.17637,-0.172045 0.49016,-0.172045 0.31812,0 0.49125,0.173127 0.17421,0.173127 0.17421,0.472853 z m -0.47935,0.295398 q 0.0379,-0.04653 0.0563,-0.11145 0.0195,-0.066 0.0195,-0.181784 0,-0.107122 -0.0195,-0.179619 -0.0195,-0.0725 -0.0541,-0.115779 -0.0346,-0.04436 -0.0833,-0.06276 -0.0487,-0.01839 -0.10496,-0.01839 -0.0563,0 -0.10063,0.01515 -0.0433,0.01515 -0.0833,0.06059 -0.0357,0.0422 -0.0573,0.115779 -0.0206,0.07358 -0.0206,0.185029 0,0.09955 0.0184,0.173128 0.0184,0.0725 0.0541,0.11686 0.0346,0.0422 0.0822,0.06168 0.0487,0.01948 0.11037,0.01948 0.053,0 0.10063,-0.01731 0.0487,-0.01839 0.0822,-0.06059 z"
         style="fill:#222222;fill-opacity:0.68627451;stroke-width:1.37149334"
         id="path1236"
         inkscape:connector-curvature="0" />
      <path
         d="m 296.4642,-56.510872 h -0.45338 l -0.34084,-0.529119 -0.10604,0.128763 v 0.400356 h -0.38954 v -1.68366 h 0.38954 v 1.005218 l 0.41983,-0.536693 h 0.44905 l -0.43715,0.523709 z"
         style="fill:#222222;fill-opacity:0.68627451;stroke-width:1.37149334"
         id="path1238"
         inkscape:connector-curvature="0" />
      <path
         d="m 297.86003,-57.046484 h -0.8916 q 0.009,0.14283 0.1082,0.218573 0.10063,0.07574 0.2954,0.07574 0.12336,0 0.23913,-0.04436 0.11578,-0.04436 0.18287,-0.09522 h 0.0433 v 0.31271 q -0.13201,0.05302 -0.24887,0.07682 -0.11686,0.0238 -0.25861,0.0238 -0.36573,0 -0.5605,-0.16447 -0.19476,-0.164471 -0.19476,-0.468525 0,-0.300809 0.18394,-0.4761 0.18503,-0.176373 0.5064,-0.176373 0.29648,0 0.4458,0.150404 0.14932,0.149322 0.14932,0.430654 z m -0.38737,-0.228311 q -0.003,-0.122271 -0.0606,-0.183948 -0.0574,-0.06168 -0.17854,-0.06168 -0.11253,0 -0.18503,0.05843 -0.0725,0.05843 -0.0811,0.187194 z"
         style="fill:#222222;fill-opacity:0.68627451;stroke-width:1.37149334"
         id="path1240"
         inkscape:connector-curvature="0" />
      <path
         d="m 298.52441,-56.510872 h -0.38954 v -1.68366 h 0.38954 z"
         style="fill:#222222;fill-opacity:0.68627451;stroke-width:1.37149334"
         id="path1242"
         inkscape:connector-curvature="0" />
      <path
         d="m 300.08905,-57.046484 h -0.89161 q 0.009,0.14283 0.10821,0.218573 0.10063,0.07574 0.29539,0.07574 0.12336,0 0.23913,-0.04436 0.11578,-0.04436 0.18287,-0.09522 h 0.0433 v 0.31271 q -0.13201,0.05302 -0.24887,0.07682 -0.11686,0.0238 -0.25861,0.0238 -0.36573,0 -0.5605,-0.16447 -0.19476,-0.164471 -0.19476,-0.468525 0,-0.300809 0.18394,-0.4761 0.18503,-0.176373 0.5064,-0.176373 0.29648,0 0.4458,0.150404 0.14933,0.149322 0.14933,0.430654 z m -0.38738,-0.228311 q -0.003,-0.122271 -0.0606,-0.183948 -0.0573,-0.06168 -0.17854,-0.06168 -0.11253,0 -0.18503,0.05843 -0.0725,0.05843 -0.0811,0.187194 z"
         style="fill:#222222;fill-opacity:0.68627451;stroke-width:1.37149334"
         id="path1244"
         inkscape:connector-curvature="0" />
      <path
         d="m 301.41996,-56.89608 q 0,0.188276 -0.1688,0.304055 -0.1688,0.114696 -0.46203,0.114696 -0.16231,0 -0.29432,-0.0303 -0.13201,-0.0303 -0.21208,-0.06709 v -0.320286 h 0.0357 q 0.0292,0.02056 0.0671,0.04545 0.039,0.02381 0.10929,0.05194 0.0606,0.02489 0.13742,0.04328 0.0768,0.01731 0.16447,0.01731 0.1147,0 0.16988,-0.02489 0.0552,-0.02597 0.0552,-0.07574 0,-0.04436 -0.0325,-0.06384 -0.0325,-0.02056 -0.12336,-0.03895 -0.0433,-0.0097 -0.11794,-0.02056 -0.0736,-0.0119 -0.13417,-0.02813 -0.16556,-0.04328 -0.24563,-0.134174 -0.0801,-0.09197 -0.0801,-0.228311 0,-0.175291 0.16555,-0.29107 0.16664,-0.116861 0.45446,-0.116861 0.13634,0 0.26077,0.02813 0.12552,0.02705 0.19585,0.05843 v 0.3073 h -0.0335 q -0.0866,-0.05951 -0.19801,-0.0963 -0.11037,-0.03787 -0.22399,-0.03787 -0.0941,0 -0.15906,0.02597 -0.0638,0.02597 -0.0638,0.07358 0,0.04328 0.0292,0.066 0.0292,0.02272 0.13742,0.04545 0.0595,0.0119 0.12768,0.02381 0.0692,0.01082 0.1385,0.02813 0.15365,0.04003 0.22723,0.126599 0.0736,0.08548 0.0736,0.214244 z"
         style="fill:#222222;fill-opacity:0.68627451;stroke-width:1.37149334"
         id="path1246"
         inkscape:connector-curvature="0" />
      <path
         d="m 302.73573,-56.89608 q 0,0.188276 -0.1688,0.304055 -0.1688,0.114696 -0.46204,0.114696 -0.1623,0 -0.29431,-0.0303 -0.13201,-0.0303 -0.21208,-0.06709 v -0.320286 h 0.0357 q 0.0292,0.02056 0.0671,0.04545 0.0389,0.02381 0.10929,0.05194 0.0606,0.02489 0.13742,0.04328 0.0768,0.01731 0.16447,0.01731 0.11469,0 0.16988,-0.02489 0.0552,-0.02597 0.0552,-0.07574 0,-0.04436 -0.0325,-0.06384 -0.0325,-0.02056 -0.12335,-0.03895 -0.0433,-0.0097 -0.11794,-0.02056 -0.0736,-0.0119 -0.13418,-0.02813 -0.16555,-0.04328 -0.24562,-0.134174 -0.0801,-0.09197 -0.0801,-0.228311 0,-0.175291 0.16555,-0.29107 0.16663,-0.116861 0.45446,-0.116861 0.13634,0 0.26077,0.02813 0.12552,0.02705 0.19585,0.05843 v 0.3073 h -0.0335 q -0.0866,-0.05951 -0.19802,-0.0963 -0.11036,-0.03787 -0.22398,-0.03787 -0.0941,0 -0.15906,0.02597 -0.0638,0.02597 -0.0638,0.07358 0,0.04328 0.0292,0.066 0.0292,0.02272 0.13742,0.04545 0.0595,0.0119 0.12769,0.02381 0.0693,0.01082 0.1385,0.02813 0.15365,0.04003 0.22723,0.126599 0.0736,0.08548 0.0736,0.214244 z"
         style="fill:#222222;fill-opacity:0.68627451;stroke-width:1.37149334"
         id="path1248"
         inkscape:connector-curvature="0" />
      <path
         d="m 303.48017,-56.936115 -0.38953,0.825599 h -0.2413 l 0.21316,-0.825599 z"
         style="fill:#222222;fill-opacity:0.68627451;stroke-width:1.37149334"
         id="path1250"
         inkscape:connector-curvature="0" />
      <path
         d="m 305.79575,-57.117899 q 0,0.299727 -0.1753,0.472854 -0.1742,0.172045 -0.49016,0.172045 -0.31596,0 -0.49125,-0.172045 -0.17421,-0.173127 -0.17421,-0.472854 0,-0.30189 0.17529,-0.473935 0.17638,-0.172045 0.49017,-0.172045 0.31812,0 0.49125,0.173127 0.17421,0.173127 0.17421,0.472853 z m -0.47935,0.295398 q 0.0379,-0.04653 0.0563,-0.11145 0.0195,-0.066 0.0195,-0.181784 0,-0.107122 -0.0195,-0.179619 -0.0195,-0.0725 -0.0541,-0.115779 -0.0346,-0.04436 -0.0833,-0.06276 -0.0487,-0.01839 -0.10496,-0.01839 -0.0563,0 -0.10063,0.01515 -0.0433,0.01515 -0.0833,0.06059 -0.0357,0.0422 -0.0574,0.115779 -0.0206,0.07358 -0.0206,0.185029 0,0.09955 0.0184,0.173128 0.0184,0.0725 0.0541,0.11686 0.0346,0.0422 0.0822,0.06168 0.0487,0.01948 0.11036,0.01948 0.053,0 0.10063,-0.01731 0.0487,-0.01839 0.0822,-0.06059 z"
         style="fill:#222222;fill-opacity:0.68627451;stroke-width:1.37149334"
         id="path1252"
         inkscape:connector-curvature="0" />
      <path
         d="m 306.95786,-57.354866 h -0.0346 q -0.0249,-0.0087 -0.0801,-0.01299 -0.0552,-0.0043 -0.092,-0.0043 -0.0833,0 -0.14716,0.01082 -0.0638,0.01082 -0.13742,0.03679 v 0.813697 h -0.38953 v -1.215135 h 0.38953 v 0.178537 q 0.12877,-0.110369 0.22399,-0.146076 0.0952,-0.03679 0.17529,-0.03679 0.0206,0 0.0465,0.0011 0.026,0.0011 0.0454,0.0032 z"
         style="fill:#222222;fill-opacity:0.68627451;stroke-width:1.37149334"
         id="path1254"
         inkscape:connector-curvature="0" />
      <path
         d="m 308.36235,-56.510872 h -0.38953 v -0.126599 q -0.10063,0.08223 -0.18828,0.121189 -0.0876,0.03895 -0.20234,0.03895 -0.22182,0 -0.35491,-0.170962 -0.13309,-0.170963 -0.13309,-0.460951 0,-0.154733 0.0444,-0.273757 0.0455,-0.120107 0.12336,-0.205589 0.0736,-0.08115 0.17853,-0.125517 0.10496,-0.04545 0.20992,-0.04545 0.10929,0 0.17854,0.02381 0.0703,0.02272 0.14391,0.05843 v -0.517217 h 0.38953 z m -0.38953,-0.335434 v -0.596206 q -0.0411,-0.01731 -0.0866,-0.02489 -0.0454,-0.0076 -0.0833,-0.0076 -0.15365,0 -0.23048,0.0963 -0.0768,0.09522 -0.0768,0.265101 0,0.178537 0.0617,0.25969 0.0617,0.08007 0.19802,0.08007 0.053,0 0.11253,-0.01948 0.0595,-0.02056 0.10496,-0.05302 z"
         style="fill:#222222;fill-opacity:0.68627451;stroke-width:1.37149334"
         id="path1256"
         inkscape:connector-curvature="0" />
      <path
         d="m 309.97244,-57.117899 q 0,0.299727 -0.1753,0.472854 -0.17421,0.172045 -0.49016,0.172045 -0.31596,0 -0.49125,-0.172045 -0.17421,-0.173127 -0.17421,-0.472854 0,-0.30189 0.17529,-0.473935 0.17638,-0.172045 0.49017,-0.172045 0.31812,0 0.49125,0.173127 0.17421,0.173127 0.17421,0.472853 z m -0.47935,0.295398 q 0.0379,-0.04653 0.0563,-0.11145 0.0195,-0.066 0.0195,-0.181784 0,-0.107122 -0.0195,-0.179619 -0.0195,-0.0725 -0.0541,-0.115779 -0.0346,-0.04436 -0.0833,-0.06276 -0.0487,-0.01839 -0.10496,-0.01839 -0.0563,0 -0.10063,0.01515 -0.0433,0.01515 -0.0833,0.06059 -0.0357,0.0422 -0.0574,0.115779 -0.0206,0.07358 -0.0206,0.185029 0,0.09955 0.0184,0.173128 0.0184,0.0725 0.0541,0.11686 0.0346,0.0422 0.0822,0.06168 0.0487,0.01948 0.11036,0.01948 0.053,0 0.10063,-0.01731 0.0487,-0.01839 0.0822,-0.06059 z"
         style="fill:#222222;fill-opacity:0.68627451;stroke-width:1.37149334"
         id="path1258"
         inkscape:connector-curvature="0" />
      <path
         d="m 311.46458,-56.510872 h -0.38954 v -0.134173 q -0.10821,0.08224 -0.19801,0.125517 -0.0898,0.0422 -0.21425,0.0422 -0.20126,0 -0.31055,-0.115778 -0.1082,-0.115779 -0.1082,-0.341926 v -0.790974 h 0.3917 v 0.602698 q 0,0.09197 0.005,0.15365 0.006,0.06059 0.0281,0.100631 0.0206,0.04004 0.0617,0.05843 0.0422,0.01839 0.11686,0.01839 0.0498,0 0.11037,-0.01839 0.0606,-0.01839 0.11686,-0.0541 v -0.861307 h 0.38954 z"
         style="fill:#222222;fill-opacity:0.68627451;stroke-width:1.37149334"
         id="path1260"
         inkscape:connector-curvature="0" />
      <path
         d="m 312.71434,-57.354866 h -0.0346 q -0.0249,-0.0087 -0.0801,-0.01299 -0.0552,-0.0043 -0.092,-0.0043 -0.0833,0 -0.14716,0.01082 -0.0638,0.01082 -0.13742,0.03679 v 0.813697 h -0.38954 v -1.215135 h 0.38954 v 0.178537 q 0.12876,-0.110369 0.22398,-0.146076 0.0952,-0.03679 0.17529,-0.03679 0.0206,0 0.0465,0.0011 0.026,0.0011 0.0455,0.0032 z"
         style="fill:#222222;fill-opacity:0.68627451;stroke-width:1.37149334"
         id="path1262"
         inkscape:connector-curvature="0" />
      <path
         d="m 313.32677,-56.510872 h -0.38953 v -1.68366 h 0.38953 z"
         style="fill:#222222;fill-opacity:0.68627451;stroke-width:1.37149334"
         id="path1264"
         inkscape:connector-curvature="0" />
      <path
         d="m 314.89141,-57.046484 h -0.89161 q 0.009,0.14283 0.10821,0.218573 0.10063,0.07574 0.2954,0.07574 0.12335,0 0.23913,-0.04436 0.11578,-0.04436 0.18286,-0.09522 h 0.0433 v 0.31271 q -0.132,0.05302 -0.24887,0.07682 -0.11686,0.0238 -0.2586,0.0238 -0.36573,0 -0.5605,-0.16447 -0.19477,-0.164471 -0.19477,-0.468525 0,-0.300809 0.18395,-0.4761 0.18503,-0.176373 0.50639,-0.176373 0.29648,0 0.44581,0.150404 0.14932,0.149322 0.14932,0.430654 z m -0.38737,-0.228311 q -0.003,-0.122271 -0.0606,-0.183948 -0.0573,-0.06168 -0.17854,-0.06168 -0.11253,0 -0.18503,0.05843 -0.0725,0.05843 -0.0812,0.187194 z"
         style="fill:#222222;fill-opacity:0.68627451;stroke-width:1.37149334"
         id="path1266"
         inkscape:connector-curvature="0" />
      <path
         d="m 316.22232,-56.89608 q 0,0.188276 -0.1688,0.304055 -0.1688,0.114696 -0.46203,0.114696 -0.16231,0 -0.29432,-0.0303 -0.132,-0.0303 -0.21208,-0.06709 v -0.320286 h 0.0357 q 0.0292,0.02056 0.0671,0.04545 0.0389,0.02381 0.10928,0.05194 0.0606,0.02489 0.13742,0.04328 0.0768,0.01731 0.16447,0.01731 0.1147,0 0.16989,-0.02489 0.0552,-0.02597 0.0552,-0.07574 0,-0.04436 -0.0325,-0.06384 -0.0325,-0.02056 -0.12335,-0.03895 -0.0433,-0.0097 -0.11795,-0.02056 -0.0736,-0.0119 -0.13417,-0.02813 -0.16555,-0.04328 -0.24562,-0.134174 -0.0801,-0.09197 -0.0801,-0.228311 0,-0.175291 0.16556,-0.29107 0.16663,-0.116861 0.45446,-0.116861 0.13633,0 0.26077,0.02813 0.12552,0.02705 0.19585,0.05843 v 0.3073 h -0.0335 q -0.0866,-0.05951 -0.19801,-0.0963 -0.11037,-0.03787 -0.22398,-0.03787 -0.0941,0 -0.15906,0.02597 -0.0638,0.02597 -0.0638,0.07358 0,0.04328 0.0292,0.066 0.0292,0.02272 0.13742,0.04545 0.0595,0.0119 0.12768,0.02381 0.0693,0.01082 0.1385,0.02813 0.15365,0.04003 0.22723,0.126599 0.0736,0.08548 0.0736,0.214244 z"
         style="fill:#222222;fill-opacity:0.68627451;stroke-width:1.37149334"
         id="path1268"
         inkscape:connector-curvature="0" />
      <path
         d="m 317.53809,-56.89608 q 0,0.188276 -0.1688,0.304055 -0.1688,0.114696 -0.46203,0.114696 -0.16231,0 -0.29432,-0.0303 -0.13201,-0.0303 -0.21208,-0.06709 v -0.320286 h 0.0357 q 0.0292,0.02056 0.0671,0.04545 0.039,0.02381 0.10929,0.05194 0.0606,0.02489 0.13742,0.04328 0.0768,0.01731 0.16447,0.01731 0.1147,0 0.16988,-0.02489 0.0552,-0.02597 0.0552,-0.07574 0,-0.04436 -0.0325,-0.06384 -0.0325,-0.02056 -0.12335,-0.03895 -0.0433,-0.0097 -0.11794,-0.02056 -0.0736,-0.0119 -0.13418,-0.02813 -0.16555,-0.04328 -0.24562,-0.134174 -0.0801,-0.09197 -0.0801,-0.228311 0,-0.175291 0.16555,-0.29107 0.16664,-0.116861 0.45446,-0.116861 0.13634,0 0.26077,0.02813 0.12552,0.02705 0.19585,0.05843 v 0.3073 h -0.0335 q -0.0866,-0.05951 -0.19801,-0.0963 -0.11037,-0.03787 -0.22399,-0.03787 -0.0941,0 -0.15906,0.02597 -0.0638,0.02597 -0.0638,0.07358 0,0.04328 0.0292,0.066 0.0292,0.02272 0.13742,0.04545 0.0595,0.0119 0.12768,0.02381 0.0693,0.01082 0.1385,0.02813 0.15365,0.04003 0.22723,0.126599 0.0736,0.08548 0.0736,0.214244 z"
         style="fill:#222222;fill-opacity:0.68627451;stroke-width:1.37149334"
         id="path1270"
         inkscape:connector-curvature="0" />
      <path
         d="m 318.28253,-56.936115 -0.38953,0.825599 h -0.2413 l 0.21316,-0.825599 z"
         style="fill:#222222;fill-opacity:0.68627451;stroke-width:1.37149334"
         id="path1272"
         inkscape:connector-curvature="0" />
      <path
         d="m 320.62408,-57.135211 q 0,0.286741 -0.15906,0.467443 -0.15798,0.180701 -0.39495,0.180701 -0.10171,0 -0.17854,-0.02164 -0.0768,-0.02164 -0.14607,-0.06276 l -0.0162,0.06059 h -0.37331 v -1.68366 h 0.38954 v 0.595124 q 0.0898,-0.07142 0.18286,-0.115779 0.0941,-0.04436 0.21641,-0.04436 0.23048,0 0.35491,0.166635 0.12444,0.165553 0.12444,0.457705 z m -0.40144,0.0076 q 0,-0.162307 -0.0552,-0.249952 -0.0552,-0.08765 -0.19693,-0.08765 -0.0552,0 -0.11361,0.01731 -0.0584,0.01623 -0.11145,0.04761 v 0.610273 q 0.0422,0.01515 0.0801,0.02056 0.0379,0.0054 0.0909,0.0054 0.15473,0 0.23048,-0.09089 0.0757,-0.09089 0.0757,-0.272675 z"
         style="fill:#222222;fill-opacity:0.68627451;stroke-width:1.37149334"
         id="path1274"
         inkscape:connector-curvature="0" />
      <path
         d="m 322.11622,-56.510872 h -0.38954 v -0.134173 q -0.1082,0.08224 -0.19801,0.125517 -0.0898,0.0422 -0.21425,0.0422 -0.20126,0 -0.31054,-0.115778 -0.10821,-0.115779 -0.10821,-0.341926 v -0.790974 h 0.3917 v 0.602698 q 0,0.09197 0.005,0.15365 0.006,0.06059 0.0281,0.100631 0.0206,0.04004 0.0617,0.05843 0.0422,0.01839 0.11686,0.01839 0.0498,0 0.11037,-0.01839 0.0606,-0.01839 0.11686,-0.0541 v -0.861307 h 0.38954 z"
         style="fill:#222222;fill-opacity:0.68627451;stroke-width:1.37149334"
         id="path1276"
         inkscape:connector-curvature="0" />
      <path
         d="m 323.36598,-57.354866 h -0.0346 q -0.0249,-0.0087 -0.0801,-0.01299 -0.0552,-0.0043 -0.092,-0.0043 -0.0833,0 -0.14716,0.01082 -0.0638,0.01082 -0.13742,0.03679 v 0.813697 h -0.38954 v -1.215135 h 0.38954 v 0.178537 q 0.12876,-0.110369 0.22398,-0.146076 0.0952,-0.03679 0.17529,-0.03679 0.0206,0 0.0465,0.0011 0.026,0.0011 0.0454,0.0032 z"
         style="fill:#222222;fill-opacity:0.68627451;stroke-width:1.37149334"
         id="path1278"
         inkscape:connector-curvature="0" />
      <path
         d="m 324.80942,-56.510872 h -0.3917 v -0.602698 q 0,-0.07358 -0.008,-0.146076 -0.008,-0.07358 -0.026,-0.108205 -0.0216,-0.04003 -0.0638,-0.05843 -0.0411,-0.01839 -0.11578,-0.01839 -0.053,0 -0.1082,0.01731 -0.0541,0.01731 -0.11795,0.05518 v 0.861307 h -0.38953 v -1.215135 h 0.38953 v 0.134173 q 0.10388,-0.08115 0.1991,-0.124435 0.0963,-0.04328 0.21316,-0.04328 0.19693,0 0.3073,0.114697 0.11145,0.114697 0.11145,0.343008 z"
         style="fill:#222222;fill-opacity:0.68627451;stroke-width:1.37149334"
         id="path1280"
         inkscape:connector-curvature="0" />
      <path
         d="m 326.22474,-56.89608 q 0,0.188276 -0.1688,0.304055 -0.1688,0.114696 -0.46203,0.114696 -0.16231,0 -0.29432,-0.0303 -0.13201,-0.0303 -0.21208,-0.06709 v -0.320286 h 0.0357 q 0.0292,0.02056 0.0671,0.04545 0.039,0.02381 0.10929,0.05194 0.0606,0.02489 0.13742,0.04328 0.0768,0.01731 0.16447,0.01731 0.1147,0 0.16988,-0.02489 0.0552,-0.02597 0.0552,-0.07574 0,-0.04436 -0.0325,-0.06384 -0.0325,-0.02056 -0.12335,-0.03895 -0.0433,-0.0097 -0.11794,-0.02056 -0.0736,-0.0119 -0.13418,-0.02813 -0.16555,-0.04328 -0.24562,-0.134174 -0.0801,-0.09197 -0.0801,-0.228311 0,-0.175291 0.16555,-0.29107 0.16664,-0.116861 0.45446,-0.116861 0.13634,0 0.26077,0.02813 0.12552,0.02705 0.19585,0.05843 v 0.3073 h -0.0335 q -0.0866,-0.05951 -0.19801,-0.0963 -0.11037,-0.03787 -0.22399,-0.03787 -0.0941,0 -0.15906,0.02597 -0.0638,0.02597 -0.0638,0.07358 0,0.04328 0.0292,0.066 0.0292,0.02272 0.13742,0.04545 0.0595,0.0119 0.12768,0.02381 0.0692,0.01082 0.1385,0.02813 0.15365,0.04003 0.22723,0.126599 0.0736,0.08548 0.0736,0.214244 z"
         style="fill:#222222;fill-opacity:0.68627451;stroke-width:1.37149334"
         id="path1282"
         inkscape:connector-curvature="0" />
      <path
         d="m 327.63139,-56.510872 h -0.38953 v -1.68366 h 0.38953 z"
         style="fill:#222222;fill-opacity:0.68627451;stroke-width:1.37149334"
         id="path1284"
         inkscape:connector-curvature="0" />
      <path
         d="m 329.24148,-57.117899 q 0,0.299727 -0.1753,0.472854 -0.1742,0.172045 -0.49016,0.172045 -0.31596,0 -0.49125,-0.172045 -0.17421,-0.173127 -0.17421,-0.472854 0,-0.30189 0.17529,-0.473935 0.17638,-0.172045 0.49017,-0.172045 0.31812,0 0.49125,0.173127 0.17421,0.173127 0.17421,0.472853 z m -0.47935,0.295398 q 0.0379,-0.04653 0.0563,-0.11145 0.0195,-0.066 0.0195,-0.181784 0,-0.107122 -0.0195,-0.179619 -0.0195,-0.0725 -0.0541,-0.115779 -0.0346,-0.04436 -0.0833,-0.06276 -0.0487,-0.01839 -0.10496,-0.01839 -0.0563,0 -0.10063,0.01515 -0.0433,0.01515 -0.0833,0.06059 -0.0357,0.0422 -0.0573,0.115779 -0.0206,0.07358 -0.0206,0.185029 0,0.09955 0.0184,0.173128 0.0184,0.0725 0.0541,0.11686 0.0346,0.0422 0.0822,0.06168 0.0487,0.01948 0.11037,0.01948 0.053,0 0.10063,-0.01731 0.0487,-0.01839 0.0822,-0.06059 z"
         style="fill:#222222;fill-opacity:0.68627451;stroke-width:1.37149334"
         id="path1286"
         inkscape:connector-curvature="0" />
      <path
         d="m 330.74335,-56.510872 h -0.3917 v -0.602698 q 0,-0.07358 -0.008,-0.146076 -0.008,-0.07358 -0.026,-0.108205 -0.0216,-0.04003 -0.0638,-0.05843 -0.0411,-0.01839 -0.11578,-0.01839 -0.053,0 -0.1082,0.01731 -0.0541,0.01731 -0.11795,0.05518 v 0.861307 h -0.38953 v -1.215135 h 0.38953 v 0.134173 q 0.10388,-0.08115 0.1991,-0.124435 0.0963,-0.04328 0.21316,-0.04328 0.19693,0 0.3073,0.114697 0.11145,0.114697 0.11145,0.343008 z"
         style="fill:#222222;fill-opacity:0.68627451;stroke-width:1.37149334"
         id="path1288"
         inkscape:connector-curvature="0" />
      <path
         d="m 332.28418,-56.650456 q 0,0.170963 -0.0487,0.287824 -0.0487,0.116861 -0.13634,0.182866 -0.0876,0.06709 -0.21208,0.0963 -0.12335,0.0303 -0.27916,0.0303 -0.1266,0 -0.24996,-0.01515 -0.12227,-0.01515 -0.21208,-0.03679 v -0.304055 h 0.0476 q 0.0714,0.02813 0.17421,0.05086 0.1028,0.0238 0.18395,0.0238 0.1082,0 0.17529,-0.02056 0.0682,-0.01948 0.10388,-0.05627 0.0335,-0.03462 0.0487,-0.08873 0.0152,-0.0541 0.0152,-0.129846 v -0.02272 q -0.0703,0.05735 -0.15582,0.09089 -0.0855,0.03354 -0.19044,0.03354 -0.25536,0 -0.39386,-0.15365 -0.1385,-0.15365 -0.1385,-0.467443 0,-0.150404 0.0422,-0.25969 0.0422,-0.109287 0.11902,-0.19044 0.0714,-0.07574 0.17529,-0.117943 0.10496,-0.0422 0.21425,-0.0422 0.0985,0 0.17854,0.02381 0.0811,0.02272 0.14715,0.06384 l 0.0141,-0.0541 h 0.37763 z m -0.38953,-0.243459 v -0.550761 q -0.0335,-0.01407 -0.0822,-0.02164 -0.0487,-0.0087 -0.0876,-0.0087 -0.15365,0 -0.23048,0.08873 -0.0768,0.08765 -0.0768,0.245624 0,0.175292 0.0649,0.244542 0.066,0.06925 0.19477,0.06925 0.0584,0 0.11469,-0.0184 0.0563,-0.01839 0.1028,-0.04869 z"
         style="fill:#222222;fill-opacity:0.68627451;stroke-width:1.37149334"
         id="path1290"
         inkscape:connector-curvature="0" />
    </g>
    <path
       sodipodi:nodetypes="sssccss"
       inkscape:connector-curvature="0"
       id="path958"
       d="m 87.248357,103.46102 c -0.0648,0.31239 0.654212,1.6174 0.829022,1.65803 0.405371,0.0942 2.10457,0.27103 2.76339,0.27634 0.553509,0.004 1.504508,-0.95183 1.504508,-0.95183 -0.841809,-1.21704 -0.100478,-2.19906 0.337752,-2.7941 0,0 -1.443961,-0.9284 -3.684522,-0.39915 -0.649639,0.15345 -1.70098,1.9738 -1.75015,2.21071 z"
       style="fill:#000000;fill-opacity:0.99607843;stroke:#000000;stroke-width:0.45699999;stroke-miterlimit:4;stroke-dasharray:none;stroke-opacity:1" />
    <path
       sodipodi:nodetypes="cac"
       inkscape:connector-curvature="0"
       id="path960"
       d="m 89.704709,103.39961 c 0,0 0.566719,0.0425 0.79832,-0.0921 0.329189,-0.19132 0.675489,-0.92113 0.675489,-0.92113"
       style="fill:none;fill-opacity:1;stroke:#ffffff;stroke-width:0.57857484;stroke-linecap:round;stroke-miterlimit:4;stroke-dasharray:none;stroke-opacity:1" />
    <path
       sodipodi:nodetypes="sssssss"
       inkscape:connector-curvature="0"
       id="path962"
       d="m 92.000337,103.39961 c 0.0353,-0.26639 0.490041,-1.40989 0.798312,-1.59662 0.134998,-0.0818 2.56613,-0.42443 3.40818,0 0.465561,0.23465 1.525468,1.27542 1.68874,2.18 0.0508,0.28138 -0.53966,1.41202 -0.829022,1.56592 -0.75084,0.39935 -2.738858,0.35614 -3.131838,0.18423 -1.009682,-0.44172 -1.951151,-2.20708 -1.934372,-2.33353 z"
       style="fill:#000000;fill-opacity:0.99607843;stroke:#000000;stroke-width:0.1;stroke-linecap:round;stroke-miterlimit:4;stroke-dasharray:none;stroke-opacity:1" />
    <path
       sodipodi:nodetypes="cac"
       inkscape:connector-curvature="0"
       id="path964"
       d="m 95.684859,103.95229 c 0,0 -0.668801,0.11304 -0.951841,-0.0307 -0.37056,-0.1882 -0.767599,-0.98254 -0.767599,-0.98254"
       style="fill:none;fill-opacity:1;stroke:#ffffff;stroke-width:0.47002426;stroke-linecap:round;stroke-miterlimit:4;stroke-dasharray:none;stroke-opacity:1" />
    <path
       sodipodi:nodetypes="cssccc"
       inkscape:connector-curvature="0"
       id="path966"
       d="m 90.435888,100.66979 c 0,0 0.69479,-0.862181 1.504511,-0.997891 0.61687,-0.10339 2.12086,0.25103 2.86077,0.638431 0.58334,0.30542 0.65487,0.83537 0.65487,0.83537 -0.788612,-0.0415 -2.073719,-0.0114 -2.748031,0.33775 -0.25709,-0.5441 -1.30107,-0.80554 -2.27212,-0.81366 z"
       style="fill:#000000;fill-opacity:0.99607843;stroke:#000000;stroke-width:0.03582171;stroke-linecap:round;stroke-miterlimit:4;stroke-dasharray:none;stroke-opacity:1" />
  </g>
</svg>
