<?xml version="1.0" encoding="UTF-8" standalone="no"?>
<!-- Created with Inkscape (http://www.inkscape.org/) -->

<svg
   xmlns:dc="http://purl.org/dc/elements/1.1/"
   xmlns:cc="http://creativecommons.org/ns#"
   xmlns:rdf="http://www.w3.org/1999/02/22-rdf-syntax-ns#"
   xmlns:svg="http://www.w3.org/2000/svg"
   xmlns="http://www.w3.org/2000/svg"
   xmlns:sodipodi="http://sodipodi.sourceforge.net/DTD/sodipodi-0.dtd"
   xmlns:inkscape="http://www.inkscape.org/namespaces/inkscape"
   width="38.146244mm"
   height="36.291016mm"
   viewBox="0 0 38.146244 36.291016"
   version="1.1"
   id="svg4117"
   inkscape:version="0.92.4 (5da689c313, 2019-01-14)"
   sodipodi:docname="briquettes-6.svg">
  <defs
     id="defs4111" />
  <sodipodi:namedview
     id="base"
     pagecolor="#ffffff"
     bordercolor="#666666"
     borderopacity="1.0"
     inkscape:pageopacity="0.0"
     inkscape:pageshadow="2"
     inkscape:zoom="0.35"
     inkscape:cx="-55.055466"
     inkscape:cy="-242.8471"
     inkscape:document-units="mm"
     inkscape:current-layer="layer1"
     showgrid="false"
     fit-margin-top="0"
     fit-margin-left="0"
     fit-margin-right="0"
     fit-margin-bottom="0"
     inkscape:window-width="1366"
     inkscape:window-height="705"
     inkscape:window-x="-8"
     inkscape:window-y="-8"
     inkscape:window-maximized="1" />
  <metadata
     id="metadata4114">
    <rdf:RDF>
      <cc:Work
         rdf:about="">
        <dc:format>image/svg+xml</dc:format>
        <dc:type
           rdf:resource="http://purl.org/dc/dcmitype/StillImage" />
        <dc:title></dc:title>
      </cc:Work>
    </rdf:RDF>
  </metadata>
  <g
     inkscape:label="Layer 1"
     inkscape:groupmode="layer"
     id="layer1"
     transform="translate(12.269551,-48.28902)">
    <g
       transform="translate(11.29589,-252.26132)"
       id="g4096">
      <path
         sodipodi:nodetypes="ccscscssccccccc"
         inkscape:connector-curvature="0"
         id="path905"
         d="m -17.558304,326.63613 -0.402201,-1.70934 c -6.736159,-1.09383 -5.041946,-12.88466 4.725836,-10.25607 1.087966,0.29278 -1.069345,-1.7104 -2.714838,-2.11153 2.499285,-8.11193 10.2555816,-5.11315 12.468156,-1.80991 0.941525,1.40565 -0.2713417,-2.91433 -2.8153937,-4.22308 6.46362375,-11.04645 23.1704097,0.46014 11.663776,9.55222 -0.9391461,0.74207 1.0239308,0.34114 2.6553173,-0.57575 0.8623647,-0.48467 1.4271126,-1.42092 1.869407,-1.73689 4.2241284,1.92784 4.8093364,8.9392 -1.0887868,11.27166 l 0.1594455,1.5255 c 9.5341777,-3.78152 4.5649847,-14.21833 0.9882384,-14.33486 3.1667543,-11.77921 -13.1751108,-15.90513 -17.5128907,-6.05529 -4.89799,-0.97403 -8.485674,1.50284 -9.569467,6.75408 -7.279518,0.62652 -9.370073,12.13304 -0.426599,13.70926 z"
         style="fill:#0e7a3c;fill-opacity:1;stroke:#0e7a3c;stroke-width:0.20109935;stroke-opacity:1" />
      <path
         sodipodi:nodetypes="cssssssssssssc"
         inkscape:connector-curvature="0"
         id="path907"
         d="m -6.3617451,318.59216 c -0.5617456,-0.0326 -3.3134766,-0.0534 -3.6675279,0.0356 -0.743043,0.18665 -1.120451,0.7461 -1.200501,2.06484 -0.169143,2.78651 -0.364365,6.55392 0.0061,9.16118 0.200853,1.41364 0.741165,2.02342 1.2421441,2.05821 1.7559376,0.12197 2.6771995,0.01 3.5537394,0 0.9626091,-0.0108 0.7780968,1.30273 -0.071066,1.30663 -0.7182573,0.003 -1.8732378,0.0519 -3.4582453,0.0417 -1.1720282,-0.008 -2.4094222,-1.49314 -2.5853612,-3.35979 -0.232388,-2.46555 -0.346549,-4.60354 0,-9.72178 0.113675,-1.6789 1.416396,-2.90735 2.307065,-2.98198 1.1246388,-0.0942 3.4567404,-0.0499 3.8736792,-0.0356 1.0691241,0.0369 0.8899474,1.48277 0,1.43105 z"
         style="fill:#ed4020;fill-opacity:1;stroke:#ed4020;stroke-width:0.20109935;stroke-opacity:1" />
      <path
         id="path909"
         d="m -0.32974624,317.15654 c -1.46963616,-0.0388 -2.95416166,0.58635 -3.09386736,2.01257 -0.2772014,3.69902 -0.1316517,7.40215 -0.1150832,11.43478 -0.011805,3.04405 5.9264947,4.01469 6.3283455,0 0.3310297,-3.30665 -0.00931,-9.85079 -0.1150811,-11.4772 -0.079917,-1.2289 -1.5346797,-1.93134 -3.00431384,-1.97015 z m -0.10054968,1.26827 c 0.90813655,0.0328 1.80685562,0.62694 1.85623962,1.66614 0.065365,1.37531 0.2756469,6.90885 0.071093,9.705 -0.2483114,3.39488 -3.9177373,2.5741 -3.9104394,0 -0.010256,-3.41005 -0.1001957,-6.54132 0.071091,-9.66926 0.086332,-1.20604 1.0038779,-1.7347 1.91201578,-1.70188 z"
         style="fill:#ed4020;fill-opacity:1;stroke:#ed4020;stroke-width:0.20109935;stroke-opacity:1"
         inkscape:connector-curvature="0" />
      <path
         sodipodi:nodetypes="cssssssssccsssssscc"
         inkscape:connector-curvature="0"
         id="path940"
         d="m 5.4850839,329.904 c 0,0 1.5056268,0.0195 2.0462883,0.0178 0.3978918,-0.002 0.320586,1.97734 0.1421998,1.99322 -0.2888307,0.0257 -1.8443707,-0.0336 -2.1054515,0 -0.3024357,0.0389 -0.4290466,0.20138 -0.4380077,0.49419 -0.041499,1.35438 -0.033063,3.45196 0,3.7309 0.030402,0.25662 0.2014692,0.63298 0.4904215,0.64707 1.1409649,0.0556 2.383626,0.0189 3.1651811,0 1.1943441,-0.0289 1.3004866,-1.511 0,-1.48596 -0.2372529,0.005 -2.3187472,0 -2.3187472,0 l 0.00608,-1.90999 c 0,0 0.7793358,-0.0252 1.238496,0 0.5136185,0.0282 1.3829987,-0.32563 1.4429674,-1.32539 0.057613,-0.96059 0.095175,-0.7358 0.05024,-2.17601 -0.011933,-0.38215 0.072662,-1.14854 -0.5266763,-1.15922 -0.8813663,-0.0157 -2.8929807,-0.01 -3.1930146,0.005 -0.8894761,0.0443 -0.6592614,1.20672 0,1.16797 4.56e-5,0 -2.28e-5,1.3e-4 -2.28e-5,1.3e-4 z"
         style="fill:#ed4020;fill-opacity:1;stroke:#ed4020;stroke-width:0.04940394;stroke-miterlimit:4;stroke-dasharray:none;stroke-opacity:1" />
    </g>
  </g>
</svg>
