<?xml version="1.0" encoding="UTF-8" standalone="no"?>
<!-- Created with Inkscape (http://www.inkscape.org/) -->

<svg
   xmlns:dc="http://purl.org/dc/elements/1.1/"
   xmlns:cc="http://creativecommons.org/ns#"
   xmlns:rdf="http://www.w3.org/1999/02/22-rdf-syntax-ns#"
   xmlns:svg="http://www.w3.org/2000/svg"
   xmlns="http://www.w3.org/2000/svg"
   xmlns:sodipodi="http://sodipodi.sourceforge.net/DTD/sodipodi-0.dtd"
   xmlns:inkscape="http://www.inkscape.org/namespaces/inkscape"
   width="40.840511mm"
   height="36.290977mm"
   viewBox="0 0 40.840511 36.290977"
   version="1.1"
   id="svg3525"
   inkscape:version="0.92.4 (5da689c313, 2019-01-14)"
   sodipodi:docname="briquettes-5.svg">
  <defs
     id="defs3519">
    <clipPath
       clipPathUnits="userSpaceOnUse"
       id="clipPath5423">
      <path
         style="opacity:0.51999996;fill:none;fill-opacity:1;stroke:#000000;stroke-width:0.10000002;stroke-miterlimit:4;stroke-dasharray:none;stroke-dashoffset:0;stroke-opacity:1"
         d="m 156.7803,298.30961 4.77077,-4.39658 7.67064,8.2319 -4.67723,4.02241 z"
         id="path5425"
         inkscape:connector-curvature="0"
         sodipodi:nodetypes="ccccc" />
    </clipPath>
  </defs>
  <sodipodi:namedview
     id="base"
     pagecolor="#ffffff"
     bordercolor="#666666"
     borderopacity="1.0"
     inkscape:pageopacity="0.0"
     inkscape:pageshadow="2"
     inkscape:zoom="0.35"
     inkscape:cx="-725.67823"
     inkscape:cy="17.152807"
     inkscape:document-units="mm"
     inkscape:current-layer="layer1"
     showgrid="false"
     fit-margin-top="0"
     fit-margin-left="0"
     fit-margin-right="0"
     fit-margin-bottom="0"
     inkscape:window-width="1366"
     inkscape:window-height="705"
     inkscape:window-x="-8"
     inkscape:window-y="-8"
     inkscape:window-maximized="1" />
  <metadata
     id="metadata3522">
    <rdf:RDF>
      <cc:Work
         rdf:about="">
        <dc:format>image/svg+xml</dc:format>
        <dc:type
           rdf:resource="http://purl.org/dc/dcmitype/StillImage" />
        <dc:title />
      </cc:Work>
    </rdf:RDF>
  </metadata>
  <g
     inkscape:label="Layer 1"
     inkscape:groupmode="layer"
     id="layer1"
     transform="translate(-42.323794,-117.0807)">
    <path
       style="fill:#0e7a3c;fill-opacity:1;stroke:#0e7a3c;stroke-width:0.15700001;stroke-miterlimit:4;stroke-dasharray:none;stroke-opacity:1"
       d="m 54.591907,121.09675 c 14.509802,-9.51481 35.885252,6.42535 20.141728,23.82146 l -1.899434,-2.90693 -2.085323,7.5006 7.498183,0.39456 -1.690971,-2.21757 c 15.958943,-14.52909 0.365854,-40.42444 -21.964183,-26.59212 z"
       id="path1372"
       inkscape:connector-curvature="0"
       sodipodi:nodetypes="ccccccc" />
    <path
       style="opacity:0.51999996;fill:#008000;fill-opacity:1;stroke:none;stroke-width:0.20231335;stroke-miterlimit:4;stroke-dasharray:none;stroke-dashoffset:0;stroke-opacity:1"
       d="m 160.46915,297.09535 a 5.6126734,5.3787923 0 0 0 -1.32579,0.19305 l 0.33544,1.08577 a 4.8868962,4.6832584 0 0 1 1.06933,-0.1646 l -0.0303,-1.11388 a 5.6126734,5.3787923 0 0 0 -0.0486,-7.8e-4 z m 0.24229,0.002 0.0302,1.10877 a 4.8868962,4.6832584 0 0 1 1.07575,0.11045 l 0.25904,-1.03348 a 5.6126734,5.3787923 0 0 0 -1.36496,-0.18574 z m -1.7544,0.24168 a 5.6126734,5.3787923 0 0 0 -1.26692,0.54824 l 0.61496,0.96143 a 4.8868962,4.6832584 0 0 1 0.98739,-0.42441 z m 3.3048,-0.002 -0.25564,1.02061 a 4.8868962,4.6832584 0 0 1 1.01221,0.36981 l 0.48932,-0.86399 a 5.6126734,5.3787923 0 0 0 -1.24589,-0.52643 z m -4.73422,0.65134 a 5.6126734,5.3787923 0 0 0 -1.0558,0.85815 l 0.82362,0.74918 a 4.8868962,4.6832584 0 0 1 0.84435,-0.65044 z m 6.14228,-0.0218 -0.48373,0.8536 a 4.8868962,4.6832584 0 0 1 0.87596,0.60947 l 0.63497,-0.64109 a 5.6126734,5.3787923 0 0 0 -1.0272,-0.82198 z m -7.32253,1.02253 a 5.6126734,5.3787923 0 0 0 -0.75685,1.09461 l 0.939,0.48901 a 4.8868962,4.6832584 0 0 1 0.63597,-0.83947 z m 8.48334,-0.066 -0.62559,0.63162 a 4.8868962,4.6832584 0 0 1 0.67815,0.80816 l 0.68743,-0.40308 a 5.6126734,5.3787923 0 0 0 -0.73999,-1.0367 z m -9.32225,1.32874 a 5.6126734,5.3787923 0 0 0 -0.40329,1.2344 l 0.94173,0.21681 a 4.8868962,4.6832584 0 0 1 0.3859,-0.97006 z m 10.15069,-0.12718 -0.67531,0.39664 a 4.8868962,4.6832584 0 0 1 0.44343,0.94674 l 0.66068,-0.18717 a 5.6126734,5.3787923 0 0 0 -0.4288,-1.15621 z m -10.59182,1.54395 a 5.6126734,5.3787923 0 0 0 -0.0626,0.94402 5.6126734,5.3787923 0 0 0 0.0259,0.32426 l 0.85825,-0.0214 a 4.8868962,4.6832584 0 0 1 0.11523,-1.03143 z m 11.05504,-0.20409 -0.64263,0.18263 a 4.8868962,4.6832584 0 0 1 0.17173,1.02426 l 0.57181,-0.0143 a 5.6126734,5.3787923 0 0 0 0.003,-0.32499 5.6126734,5.3787923 0 0 0 -0.10381,-0.8676 z m -11.07696,1.65756 a 5.6126734,5.3787923 0 0 0 0.30767,1.20535 l 0.7111,-0.20228 a 4.8868962,4.6832584 0 0 1 -0.17174,-1.02425 z m 10.60951,-0.26524 a 4.8868962,4.6832584 0 0 1 -0.11524,1.03142 l 0.45256,0.10401 a 5.6126734,5.3787923 0 0 0 0.21739,-1.1493 z m -0.15793,1.21185 a 4.8868962,4.6832584 0 0 1 -0.3859,0.97006 l 0.33198,0.1726 a 5.6126734,5.3787923 0 0 0 0.49304,-1.04138 z m -9.38037,0.23504 -0.69251,0.19668 a 5.6126734,5.3787923 0 0 0 0.60221,1.0632 l 0.53373,-0.31313 a 4.8868962,4.6832584 0 0 1 -0.44343,-0.94675 z m 8.89724,0.89528 a 4.8868962,4.6832584 0 0 1 -0.63546,0.83946 l 0.22811,0.20749 a 5.6126734,5.3787923 0 0 0 0.73227,-0.87775 z m -8.35325,0.20935 -0.51846,0.30456 a 5.6126734,5.3787923 0 0 0 0.84795,0.85722 l 0.34923,-0.35263 a 4.8868962,4.6832584 0 0 1 -0.67872,-0.80915 z m 0.82169,0.93423 -0.34298,0.3463 a 5.6126734,5.3787923 0 0 0 1.0184,0.61665 l 0.20053,-0.35398 a 4.8868962,4.6832584 0 0 1 -0.87595,-0.60897 z m 6.7656,-0.16716 a 4.8868962,4.6832584 0 0 1 -0.84327,0.6504 l 0.14466,0.22598 a 5.6126734,5.3787923 0 0 0 0.91905,-0.67588 z m -1.00855,0.74729 a 4.8868962,4.6832584 0 0 1 -0.98845,0.42447 l 0.0756,0.2441 a 5.6126734,5.3787923 0 0 0 1.05696,-0.44257 z m -4.71333,0.1218 -0.19136,0.33687 a 5.6126734,5.3787923 0 0 0 1.12392,0.34808 l 0.079,-0.31562 a 4.8868962,4.6832584 0 0 1 -1.01167,-0.36933 z m 1.20051,0.41073 -0.0777,0.30993 a 5.6126734,5.3787923 0 0 0 1.113,0.0845 5.6126734,5.3787923 0 0 0 0.0485,-0.004 l -0.007,-0.28014 a 4.8868962,4.6832584 0 0 1 -1.07628,-0.11044 z m 2.33858,-0.0575 a 4.8868962,4.6832584 0 0 1 -1.06881,0.16458 l 0.007,0.26936 a 5.6126734,5.3787923 0 0 0 1.13657,-0.18933 z"
       id="circle5379"
       inkscape:connector-curvature="0"
       clip-path="url(#clipPath5423)"
       transform="matrix(2.4938941,0,0,2.4491363,-335.43821,-608.28319)" />
    <g
       aria-label="6"
       transform="scale(1.1143049,0.89742044)"
       style="font-style:normal;font-variant:normal;font-weight:normal;font-stretch:normal;font-size:26.81342888px;line-height:1.25;font-family:Impact;-inkscape-font-specification:Impact;text-align:center;text-anchor:middle;opacity:1;fill:#ed4020;fill-opacity:1;stroke:none;stroke-width:0.09999999;stroke-miterlimit:4;stroke-dasharray:none;stroke-dashoffset:0;stroke-opacity:1"
       id="text5429">
      <path
         d="m 57.313595,145.76223 h -5.289368 q 0,-1.47945 -0.03928,-1.85913 -0.02618,-0.39278 -0.31422,-0.65463 -0.274943,-0.26185 -0.759365,-0.26185 -0.405867,0 -0.667717,0.24876 -0.26185,0.24876 -0.301128,0.64153 -0.03928,0.39278 -0.03928,1.58419 v 3.37787 q 0.405867,-0.85101 1.191417,-1.26997 0.78555,-0.43206 1.937689,-0.43206 1.453267,0 2.566129,0.78555 1.112862,0.78555 1.41399,1.88532 0.301127,1.09977 0.301127,2.972 v 1.68893 q 0,2.22573 -0.170203,3.3124 -0.170202,1.08668 -0.916474,2.01625 -0.73318,0.91647 -2.029337,1.42708 -1.283064,0.51061 -2.998181,0.51061 -2.134077,0 -3.495696,-0.58917 -1.36162,-0.58916 -2.107892,-1.68893 -0.733179,-1.11286 -0.864104,-2.33046 -0.117833,-1.2176 -0.117833,-4.72639 v -2.93272 q 0,-3.78373 0.10474,-5.0537 0.117833,-1.28307 0.916475,-2.42212 0.798642,-1.13904 2.173354,-1.70202 1.387804,-0.57607 3.194569,-0.57607 2.225724,0 3.652806,0.72009 1.427081,0.72008 2.042429,2.02933 0.615347,1.30925 0.615347,3.29931 z m -5.289368,6.61171 q 0,-1.12595 -0.248757,-1.54491 -0.248758,-0.41896 -0.811735,-0.41896 -0.549885,0 -0.811735,0.40587 -0.248757,0.39277 -0.248757,1.558 v 3.8361 q 0,1.4009 0.235665,1.83295 0.248757,0.43205 0.811735,0.43205 0.340404,0 0.706994,-0.32731 0.36659,-0.3404 0.36659,-1.80676 z"
         style="font-style:normal;font-variant:normal;font-weight:normal;font-stretch:normal;font-family:Impact;-inkscape-font-specification:Impact;fill:#ed4020;fill-opacity:1;stroke:none;stroke-width:0.09999999"
         id="path827" />
    </g>
    <g
       aria-label="HOURS"
       transform="scale(1.1143049,0.89742044)"
       style="font-style:normal;font-variant:normal;font-weight:normal;font-stretch:normal;font-size:9.32737827px;line-height:1.25;font-family:Impact;-inkscape-font-specification:Impact;text-align:center;text-anchor:middle;opacity:1;fill:#ed4020;fill-opacity:1;stroke:none;stroke-width:0.09999994;stroke-miterlimit:4;stroke-dasharray:none;stroke-dashoffset:0;stroke-opacity:1"
       id="text5429-0">
      <path
         d="m 42.390881,163.37442 v 7.37355 h -1.917395 v -3.09698 h -0.573853 v 3.09698 h -1.917395 v -7.37355 h 1.917395 v 2.63699 h 0.573853 v -2.63699 z"
         style="font-style:normal;font-variant:normal;font-weight:normal;font-stretch:normal;font-family:Impact;-inkscape-font-specification:Impact;fill:#ed4020;fill-opacity:1;stroke:none;stroke-width:0.09999994"
         id="path830" />
      <path
         d="m 47.537335,167.69198 q 0,1.11127 -0.05465,1.57582 -0.0501,0.45999 -0.327915,0.84256 -0.273263,0.38257 -0.742365,0.58751 -0.469101,0.20495 -1.093052,0.20495 -0.59207,0 -1.065726,-0.19128 -0.469101,-0.19584 -0.756027,-0.58297 -0.286927,-0.38712 -0.341579,-0.84256 -0.05465,-0.45544 -0.05465,-1.59403 v -1.26157 q 0,-1.11127 0.0501,-1.57126 0.05465,-0.46454 0.327916,-0.84711 0.277817,-0.38257 0.746919,-0.58752 0.469101,-0.20495 1.093052,-0.20495 0.59207,0 1.061172,0.19584 0.473655,0.19129 0.760582,0.57841 0.286926,0.38712 0.341578,0.84256 0.05465,0.45544 0.05465,1.59403 z m -1.917396,-2.42293 q 0,-0.51465 -0.05921,-0.65583 -0.05465,-0.14574 -0.232273,-0.14574 -0.150295,0 -0.232274,0.11841 -0.07742,0.11386 -0.07742,0.68316 v 3.44311 q 0,0.64217 0.0501,0.79246 0.05465,0.1503 0.245937,0.1503 0.195838,0 0.250491,-0.17307 0.05465,-0.17306 0.05465,-0.82434 z"
         style="font-style:normal;font-variant:normal;font-weight:normal;font-stretch:normal;font-family:Impact;-inkscape-font-specification:Impact;fill:#ed4020;fill-opacity:1;stroke:none;stroke-width:0.09999994"
         id="path832" />
      <path
         d="m 52.615474,163.37442 v 4.92785 q 0,0.838 -0.05465,1.17958 -0.05465,0.33703 -0.323361,0.69682 -0.268709,0.35524 -0.710484,0.54197 -0.437221,0.18218 -1.033845,0.18218 -0.660386,0 -1.165922,-0.21861 -0.505537,-0.21861 -0.756028,-0.5693 -0.250491,-0.35069 -0.296035,-0.73781 -0.04554,-0.39168 -0.04554,-1.63958 v -4.3631 h 1.917396 v 5.52903 q 0,0.48276 0.0501,0.61939 0.05465,0.13208 0.214056,0.13208 0.182175,0 0.232274,-0.14574 0.05465,-0.1503 0.05465,-0.70138 v -5.43338 z"
         style="font-style:normal;font-variant:normal;font-weight:normal;font-stretch:normal;font-family:Impact;-inkscape-font-specification:Impact;fill:#ed4020;fill-opacity:1;stroke:none;stroke-width:0.09999994"
         id="path834" />
      <path
         d="m 53.357839,163.37442 h 1.357206 q 1.357206,0 1.835417,0.10475 0.482764,0.10475 0.783354,0.53742 0.305143,0.42811 0.305143,1.37087 0,0.86078 -0.214056,1.15681 -0.214056,0.29604 -0.842561,0.35525 0.569298,0.14118 0.765137,0.37801 0.195838,0.23683 0.241382,0.43722 0.0501,0.19584 0.0501,1.0885 v 1.94472 h -1.780764 v -2.45026 q 0,-0.59207 -0.09564,-0.73325 -0.09109,-0.14119 -0.487319,-0.14119 v 3.3247 h -1.917395 z m 1.917395,1.26157 v 1.63958 q 0.323361,0 0.450884,-0.0865 0.132077,-0.0911 0.132077,-0.5784 v -0.40534 q 0,-0.35069 -0.127522,-0.46 -0.122969,-0.1093 -0.455439,-0.1093 z"
         style="font-style:normal;font-variant:normal;font-weight:normal;font-stretch:normal;font-family:Impact;-inkscape-font-specification:Impact;fill:#ed4020;fill-opacity:1;stroke:none;stroke-width:0.09999994"
         id="path836" />
      <path
         d="m 62.448389,165.60607 h -1.780764 v -0.54652 q 0,-0.38257 -0.06832,-0.48732 -0.06832,-0.10475 -0.227719,-0.10475 -0.173067,0 -0.264154,0.14118 -0.08653,0.14119 -0.08653,0.42811 0,0.36891 0.100197,0.55564 0.09564,0.18673 0.541971,0.45088 1.279782,0.76058 1.612252,1.2479 0.33247,0.48732 0.33247,1.57127 0,0.7879 -0.186729,1.16136 -0.182176,0.37346 -0.710484,0.62851 -0.528309,0.25049 -1.229684,0.25049 -0.769691,0 -1.316217,-0.29148 -0.541972,-0.29148 -0.710484,-0.74237 -0.168512,-0.45088 -0.168512,-1.27978 v -0.48276 h 1.780764 v 0.89721 q 0,0.41445 0.07287,0.53286 0.07742,0.11842 0.268709,0.11842 0.191284,0 0.282372,-0.1503 0.09564,-0.15029 0.09564,-0.44633 0,-0.65127 -0.177621,-0.85167 -0.182176,-0.20039 -0.897214,-0.66949 -0.715038,-0.47366 -0.947312,-0.68771 -0.232273,-0.21406 -0.387122,-0.59207 -0.150295,-0.37802 -0.150295,-0.96553 0,-0.84712 0.214056,-1.23879 0.218611,-0.39168 0.701375,-0.61029 0.482765,-0.22317 1.165923,-0.22317 0.746918,0 1.270673,0.24139 0.528308,0.24138 0.69682,0.61028 0.173067,0.36435 0.173067,1.24335 z"
         style="font-style:normal;font-variant:normal;font-weight:normal;font-stretch:normal;font-family:Impact;-inkscape-font-specification:Impact;fill:#ed4020;fill-opacity:1;stroke:none;stroke-width:0.09999994"
         id="path838" />
    </g>
  </g>
</svg>
