<?xml version="1.0" encoding="UTF-8" standalone="no"?>
<!-- Created with Inkscape (http://www.inkscape.org/) -->

<svg
   xmlns:dc="http://purl.org/dc/elements/1.1/"
   xmlns:cc="http://creativecommons.org/ns#"
   xmlns:rdf="http://www.w3.org/1999/02/22-rdf-syntax-ns#"
   xmlns:svg="http://www.w3.org/2000/svg"
   xmlns="http://www.w3.org/2000/svg"
   xmlns:sodipodi="http://sodipodi.sourceforge.net/DTD/sodipodi-0.dtd"
   xmlns:inkscape="http://www.inkscape.org/namespaces/inkscape"
   width="42.552563mm"
   height="18.030987mm"
   viewBox="0 0 42.552563 18.030987"
   version="1.1"
   id="svg1870"
   inkscape:version="0.92.4 (5da689c313, 2019-01-14)"
   sodipodi:docname="briquettes-17.svg">
  <defs
     id="defs1864" />
  <sodipodi:namedview
     id="base"
     pagecolor="#ffffff"
     bordercolor="#666666"
     borderopacity="1.0"
     inkscape:pageopacity="0.0"
     inkscape:pageshadow="2"
     inkscape:zoom="3.959798"
     inkscape:cx="73.379002"
     inkscape:cy="13.414398"
     inkscape:document-units="mm"
     inkscape:current-layer="layer1"
     showgrid="false"
     fit-margin-top="0"
     fit-margin-left="0"
     fit-margin-right="0"
     fit-margin-bottom="0"
     inkscape:window-width="1366"
     inkscape:window-height="705"
     inkscape:window-x="-8"
     inkscape:window-y="-8"
     inkscape:window-maximized="1"
     inkscape:snap-global="false" />
  <metadata
     id="metadata1867">
    <rdf:RDF>
      <cc:Work
         rdf:about="">
        <dc:format>image/svg+xml</dc:format>
        <dc:type
           rdf:resource="http://purl.org/dc/dcmitype/StillImage" />
        <dc:title />
      </cc:Work>
    </rdf:RDF>
  </metadata>
  <g
     inkscape:label="Layer 1"
     inkscape:groupmode="layer"
     id="layer1"
     transform="translate(-68.68205,-59.686887)">
    <path
       style="opacity:0.8;fill:#ffffff;fill-opacity:1;stroke:none;stroke-width:2.06545925;stroke-opacity:1"
       d="M 11.353516,0 C 5.0640413,0 0,5.2302507 0,11.726562 V 43.8125 c 0,6.496312 5.0640413,11.726562 11.353516,11.726562 H 131.61914 C 102.59605,61.811216 109.99977,0.16372909 144.78906,0 Z m 35.30664,7.6601562 c 1.84194,0 3.465853,0.2237361 4.873047,0.6699219 1.418658,0.4347465 2.574425,1.0526686 3.466797,1.8535159 0.892372,0.800846 1.590367,1.720619 2.09375,2.761718 0.503383,1.029662 0.82364,2.185442 0.960938,3.466797 v 1.648438 c 0,0.3661 -1.258453,0.548828 -3.775391,0.548828 -0.594923,0 -1.424294,-0.01223 -2.488281,-0.03516 -1.052548,-0.02293 -1.744405,-0.0332 -2.076172,-0.0332 -0.0572,0 -0.143419,0.0043 -0.257813,0.01563 -0.114393,0.01134 -0.200615,0.01758 -0.257812,0.01758 -0.297449,0 -0.525371,-0.119123 -0.685547,-0.359375 -0.148662,-0.251692 -0.251397,-0.555495 -0.308594,-0.910156 -0.04586,-0.354661 -0.109579,-0.709793 -0.189453,-1.064454 -0.06879,-0.35466 -0.222765,-0.652323 -0.462891,-0.892578 -0.228787,-0.251691 -0.549044,-0.376953 -0.960937,-0.376953 -0.411868,0 -0.773143,0.06973 -1.082031,0.207031 -0.308889,0.137298 -0.553275,0.352945 -0.736328,0.650391 -0.183182,0.286017 -0.339112,0.577541 -0.464844,0.875 -0.114394,0.297456 -0.198663,0.68746 -0.25586,1.167969 -0.04586,0.469067 -0.08059,0.869392 -0.103515,1.201172 -0.0126,0.32034 -0.02508,0.755534 -0.03516,1.304687 -0.0126,0.537711 -0.02312,0.9319 -0.0332,1.183594 0,0.137298 -0.01053,0.389767 -0.0332,0.755859 -0.02268,0.366103 -0.03516,0.663766 -0.03516,0.892578 0,2.848729 0.755452,4.312495 2.265625,4.392578 0.411868,10e-7 0.748588,-0.149806 1.011719,-0.447265 0.26313,-0.297457 0.441688,-0.628038 0.533203,-0.994141 0.103055,-0.3661 0.216064,-0.749967 0.341797,-1.15039 0.125984,-0.411866 0.263498,-0.691115 0.412109,-0.839844 h 9.335938 c 0.377549,0.03432 0.582869,0.262237 0.617187,0.685547 -0.19452,1.716102 -0.646177,3.237335 -1.355469,4.564453 -0.709341,1.315676 -1.61877,2.391393 -2.728515,3.226562 -1.109745,0.823728 -2.374336,1.44779 -3.792969,1.871094 -1.407194,0.423307 -2.94684,0.634766 -4.617187,0.634766 -1.555931,0 -2.974499,-0.170451 -4.25586,-0.513672 -1.281361,-0.33178 -2.361255,-0.779252 -3.242187,-1.339844 -0.880933,-0.560595 -1.658986,-1.240169 -2.333985,-2.041016 -0.674998,-0.812286 -1.212853,-1.641672 -1.613281,-2.488281 -0.400403,-0.858051 -0.726824,-1.79205 -0.978516,-2.798828 -0.240378,-1.018222 -0.406632,-1.960588 -0.498047,-2.830078 -0.08012,-0.880932 -0.11914,-1.796518 -0.11914,-2.746094 v -1.509765 c 0.114394,-1.67034 0.502456,-3.168976 1.166016,-4.496094 0.663557,-1.33856 1.470353,-2.414277 2.419921,-3.226563 0.949594,-0.82373 2.035627,-1.5052575 3.259766,-2.0429684 1.224164,-0.5491527 2.41481,-0.9268811 3.570313,-1.1328125 1.1555,-0.2173732 2.30513,-0.3261719 3.449218,-0.3261719 z m 28.625,0.4472657 h 2.882813 c 0.17159,0 0.315268,0.00429 0.429687,0.015625 0.114394,0 0.251933,0.012227 0.41211,0.035156 0.160252,0.022929 0.285488,0.057809 0.376953,0.1035157 0.103055,0.045757 0.189277,0.1135379 0.257812,0.2050781 0.06854,0.091515 0.101563,0.2003136 0.101563,0.3261719 l 7.912109,25.0722652 c 0,0.228813 -0.08622,0.382805 -0.257812,0.462891 -0.160252,0.09152 -0.468232,0.138672 -0.925782,0.138672 h -1.580078 c -0.457625,0 -1.137204,0.0043 -2.041015,0.01563 C 81.949705,34.49376 81.268172,34.5 80.810547,34.5 c -0.137323,0 -0.416562,0.0062 -0.839844,0.01758 -0.411868,0.02293 -0.760865,0.02722 -1.046875,0.01563 -0.286009,0 -0.606267,-0.01646 -0.960937,-0.05078 -0.343232,-0.02293 -0.624424,-0.08652 -0.841797,-0.189453 -0.205859,-0.09152 -0.337259,-0.216777 -0.394532,-0.376953 V 32.783203 C 76.612171,32.211169 76.411035,31.685585 76.125,31.205078 75.838991,30.724569 75.537124,30.484375 75.216797,30.484375 H 69.3125 l -0.892578,3.638672 c -0.125732,0.274575 -0.766247,0.410156 -1.921875,0.410156 H 65.125 c -0.491943,0 -1.222867,0.01842 -2.195312,0.05273 -0.972473,0.03432 -1.705323,0.05078 -2.197266,0.05078 h -0.480469 c -0.183181,0 -0.474698,0.0062 -0.875,0.01758 -0.388989,0.01134 -0.692783,0.01758 -0.910156,0.01758 -0.09128,-0.09134 -0.252326,-0.29792 -0.480469,-0.617187 0.709189,-2.619334 1.493705,-5.281087 2.351563,-7.980469 0.858053,-2.700002 1.92151,-5.925195 3.191406,-9.677735 1.281361,-3.763983 2.155935,-6.367069 2.625,-7.8085934 C 66.29162,8.359078 66.383829,8.2215463 66.429688,8.1757812 H 69.3125 c 0.674998,0 1.670649,-0.012227 2.986328,-0.035156 1.315679,-0.022929 2.31133,-0.033203 2.986328,-0.033203 z M 11.376953,8.3476562 h 19.976563 v 5.6289058 0.25586 0.27539 c 0,0.04576 -0.0069,0.131955 -0.01953,0.257813 -0.0126,0.114419 -0.0351,0.194477 -0.06836,0.240234 -0.02268,0.04576 -0.06365,0.113538 -0.121094,0.205079 -0.04586,0.08007 -0.103339,0.137533 -0.171875,0.171874 -0.06854,0.03432 -0.158792,0.0692 -0.273437,0.103516 -0.114394,0.02293 -0.241584,0.03516 -0.378907,0.03516 h -0.480468 c -2.96315,0 -5.662747,-0.04716 -8.09961,-0.138672 -0.02268,0.183056 -0.06169,0.470397 -0.11914,0.859376 -0.04586,0.37754 -0.08683,0.714262 -0.121094,1.011718 -0.02268,0.286017 -0.0332,0.565266 -0.0332,0.839844 h 8.167969 c 0.343231,0 0.571155,0.04716 0.685546,0.138672 0.114394,0.09152 0.171875,0.239371 0.171876,0.445312 0,0.0572 -0.005,0.149533 -0.01758,0.275391 -0.0126,0.125858 -0.01953,0.216243 -0.01953,0.273437 0,0.549153 0.01651,1.362078 0.05078,2.4375 0.03427,1.075422 0.05273,1.88835 0.05273,2.4375 -0.03427,0.228813 -0.126477,0.341797 -0.275391,0.341797 -0.06854,0 -0.126017,-0.0226 -0.171875,-0.06836 -3.615269,0.183055 -6.292264,0.275391 -8.03125,0.275391 h -0.445312 v 2.470703 c 1.01823,0 2.48814,-0.0452 4.410156,-0.136719 1.93348,-0.09152 3.380789,-0.136719 4.341797,-0.136719 0.755099,0 1.18834,0.160131 1.302734,0.480469 v 1.302734 c 0,0.549153 0.01248,1.362079 0.03516,2.4375 0.02268,1.075425 0.0332,1.888348 0.0332,2.4375 0,0.572034 -0.227896,0.857422 -0.685546,0.857422 -0.594898,0 -1.510491,-0.0062 -2.746094,-0.01758 -1.235578,-0.01134 -2.173773,-0.01563 -2.814453,-0.01563 -1.647471,0 -4.004209,0.03907 -7.070313,0.119141 -3.066104,0.09154 -5.285327,0.142857 -6.658203,0.154297 l -0.480469,-0.548828 c -0.04586,-0.320338 -0.06836,-0.525663 -0.06836,-0.617188 l 0.0059,-0.002 v -0.650391 c 0,-1.956354 0.0225,-4.846785 0.06836,-8.667968 0.04586,-3.821186 0.06836,-6.70966 0.06836,-8.666016 z m 79.214844,0.1035157 h 13.935543 c 1.14407,0 2.22396,0.1827279 3.24219,0.5488281 1.01823,0.3546608 1.9235,0.8741064 2.71289,1.560547 0.78942,0.686443 1.41152,1.573293 1.86914,2.660156 0.45763,1.086864 0.6875,2.312387 0.6875,3.673828 0,1.006778 -0.12095,1.926549 -0.36133,2.761719 -0.22878,0.83517 -0.53676,1.549616 -0.92578,2.144531 -0.37755,0.583474 -0.84762,1.111011 -1.4082,1.580078 -0.54917,0.46907 -1.11576,0.846796 -1.69922,1.132813 -0.57204,0.286014 -1.20642,0.532347 -1.9043,0.738281 -0.69787,0.194495 -1.34453,0.336212 -1.93945,0.427735 -0.58348,0.09151 -1.20139,0.161248 -1.85351,0.207031 h -3.294926 c -0.09146,1.796185 -0.136719,3.808131 -0.136719,6.039062 v 1.923828 c -0.03427,0.411866 -0.229263,0.617188 -0.583984,0.617188 H 89.185547 C 88.888098,33.67739 88.738281,32.761804 88.738281,31.720703 V 8.8613281 c 0,-0.080076 0.03498,-0.1478561 0.103516,-0.2050781 0.08013,-0.057197 0.199375,-0.098215 0.359375,-0.1210938 0.160252,-0.022929 0.297791,-0.039392 0.412109,-0.050781 0.125733,-0.011339 0.298126,-0.017578 0.515625,-0.017578 0.228788,-0.011339 0.38279,-0.015625 0.462891,-0.015625 z M 72.951172,13.873047 c -0.205858,0 -0.487051,0.38805 -0.841797,1.166015 -0.343206,0.777966 -0.622471,1.660635 -0.839844,2.644532 l -1.373047,5.953125 0.480469,0.80664 h 1.132813 c 0.91525,0 1.750785,-0.05134 2.505859,-0.154297 0.766539,-0.114416 1.148437,-0.291008 1.148437,-0.53125 z m 26.050781,0.06836 c -0.388989,0.183055 -0.583984,2.104614 -0.583984,5.765625 l 0.548828,0.75586 c 0.46909,0 0.914605,-0.03488 1.337893,-0.103516 0.43474,-0.06864 0.85961,-0.187759 1.27148,-0.359375 0.41187,-0.171616 0.76505,-0.389216 1.0625,-0.652344 0.29748,-0.274577 0.53765,-0.617434 0.72071,-1.029297 0.1829,-0.423307 0.27539,-0.899512 0.27539,-1.425781 0,-0.400426 -0.0575,-0.753602 -0.17188,-1.0625 -0.10305,-0.320338 -0.23446,-0.578945 -0.39453,-0.773437 -0.14866,-0.205934 -0.36012,-0.382523 -0.63477,-0.53125 -0.26313,-0.148737 -0.5156,-0.257536 -0.75586,-0.326172 -0.22878,-0.08008 -0.52644,-0.137532 -0.89257,-0.171875 -0.35467,-0.04576 -0.65233,-0.06836 -0.892582,-0.06836 -0.228787,-0.01134 -0.524515,-0.01758 -0.890625,-0.01758 z M 45.777344,39.558594 c 1.660573,0 2.967091,0.483681 3.917968,1.453125 0.950904,0.964802 1.425782,2.280098 1.425782,3.945312 0,1.229196 -0.277361,2.292274 -0.833985,3.1875 -0.556623,0.890588 -1.364312,1.510758 -2.421875,1.863281 0.01764,0.459211 0.142181,0.788829 0.375,0.988282 0.231811,0.199458 0.630046,0.298828 1.191407,0.298828 0.190236,0 0.414124,-0.03272 0.673828,-0.09766 0.259754,-0.06493 0.440921,-0.122806 0.542969,-0.173828 h 0.263671 v 1.83789 c -0.259754,0.0603 -0.541514,0.113769 -0.847656,0.160156 -0.301505,0.04639 -0.766386,0.06836 -1.392578,0.06836 -0.551962,0 -1.03444,-0.06787 -1.447266,-0.207032 -0.408189,-0.134524 -0.747796,-0.327659 -1.021484,-0.578124 -0.269027,-0.245846 -0.470968,-0.535177 -0.605469,-0.869141 -0.134551,-0.333972 -0.213147,-0.705097 -0.236328,-1.113281 -1.549253,-0.08814 -2.757598,-0.606492 -3.625,-1.552735 -0.862765,-0.950889 -1.294922,-2.221503 -1.294922,-3.8125 0,-1.665214 0.47368,-2.98051 1.419922,-3.945312 0.946268,-0.969444 2.250806,-1.453125 3.916016,-1.453125 z m 61.994136,0.02734 c 0.68186,0 1.35428,0.06665 2.01758,0.201171 0.66795,0.129865 1.24539,0.294673 1.73242,0.494141 v 2.386719 h -0.28515 c -0.41746,-0.333972 -0.92946,-0.611338 -1.53711,-0.833985 -0.60301,-0.227275 -1.22074,-0.341796 -1.85156,-0.341796 -0.22274,0 -0.44543,0.01635 -0.66797,0.04883 -0.21796,0.02782 -0.42865,0.08251 -0.63281,0.166015 -0.18092,0.06957 -0.33694,0.176514 -0.4668,0.320313 -0.12977,0.139162 -0.19336,0.299579 -0.19336,0.480468 0,0.273671 0.10387,0.484381 0.3125,0.632813 0.20863,0.143798 0.60173,0.27589 1.18164,0.396484 0.38035,0.07884 0.74586,0.156239 1.09375,0.230469 0.35253,0.0742 0.72926,0.176751 1.13281,0.306641 0.79317,0.259754 1.3782,0.61452 1.75391,1.064453 0.38037,0.445294 0.57031,1.023955 0.57031,1.738281 0,1.020465 -0.43338,1.852077 -1.30078,2.492188 -0.86277,0.635472 -2.0372,0.953125 -3.52148,0.953125 -0.85813,0 -1.606,-0.07422 -2.2461,-0.222657 -0.63549,-0.15307 -1.23246,-0.346203 -1.78906,-0.578125 v -2.484375 h 0.29297 c 0.55198,0.440655 1.16775,0.779065 1.84961,1.015625 0.68651,0.236574 1.34573,0.355469 1.97656,0.355469 0.16227,0 0.37616,-0.01317 0.64062,-0.04102 0.26439,-0.02784 0.47951,-0.07569 0.64649,-0.140626 0.20409,-0.0835 0.37206,-0.187271 0.50195,-0.3125 0.13455,-0.125227 0.20117,-0.310789 0.20117,-0.55664 0,-0.227276 -0.0982,-0.42163 -0.29297,-0.583984 -0.19022,-0.16698 -0.47077,-0.294674 -0.84179,-0.382813 -0.38965,-0.09278 -0.80228,-0.178972 -1.23828,-0.257813 -0.4314,-0.0835 -0.83645,-0.187271 -1.2168,-0.3125 -0.87204,-0.282947 -1.49978,-0.666036 -1.88477,-1.148437 -0.38037,-0.48704 -0.57226,-1.089629 -0.57226,-1.808594 0,-0.964802 0.43216,-1.751733 1.29492,-2.359375 0.8674,-0.612278 1.98078,-0.917968 3.33984,-0.917968 z m -96.531246,0.1875 h 4.021485 c 0.834923,0 1.44507,0.02832 1.830078,0.08398 0.389619,0.05566 0.77395,0.178956 1.154297,0.36914 0.39428,0.199459 0.686767,0.468036 0.876953,0.806641 0.194772,0.333972 0.292969,0.71706 0.292969,1.148438 0,0.500956 -0.132094,0.943132 -0.396485,1.328125 -0.26439,0.380356 -0.638701,0.677255 -1.121093,0.890625 v 0.05664 c 0.677214,0.134526 1.213141,0.411892 1.607421,0.833985 0.398892,0.4221 0.597657,0.978787 0.597657,1.669922 0,0.500955 -0.100593,0.949479 -0.304688,1.34375 -0.199559,0.394269 -0.475722,0.720714 -0.828125,0.980468 -0.408189,0.306139 -0.857918,0.52442 -1.349609,0.654297 -0.48703,0.129865 -1.10793,0.193359 -1.859375,0.193359 h -4.521485 z m 10.853516,0 h 4.480469 c 0.612258,0 1.13941,0.0359 1.580078,0.105468 0.440642,0.06957 0.853273,0.21924 1.238281,0.451172 0.389619,0.231937 0.698481,0.533233 0.925781,0.904297 0.231811,0.36644 0.347657,0.828147 0.347657,1.384766 0,0.765349 -0.177991,1.388692 -0.535157,1.871093 -0.352504,0.482402 -0.858907,0.885024 -1.517578,1.205078 l 3.458985,4.4375 h -3.263672 l -2.826172,-3.798828 h -1.230469 v 3.798828 H 22.09375 Z m 10.693359,0 h 6.06836 v 1.83789 h -1.697266 v 6.685547 h 1.697266 v 1.835937 h -6.06836 v -1.835937 h 1.699219 v -6.685547 h -1.699219 z m 20.220703,0 h 2.685547 v 6.464843 c 0,0.718962 0.149692,1.252942 0.451172,1.605469 0.301506,0.352524 0.791535,0.529297 1.46875,0.529297 0.667944,0 1.154796,-0.169202 1.460938,-0.507813 0.310778,-0.338607 0.466797,-0.880158 0.466797,-1.626953 v -6.464843 h 2.685546 v 6.609374 c 10e-7,1.280222 -0.390658,2.261505 -1.169921,2.94336 -0.779263,0.681857 -1.92656,1.023437 -3.44336,1.023437 -1.516775,0 -2.664096,-0.34158 -3.443359,-1.023437 -0.774627,-0.681855 -1.16211,-1.659964 -1.16211,-2.935547 z m 11.722657,0 h 7.49414 v 2.003906 h -4.835937 v 1.789062 h 4.488281 v 2.003906 h -4.488281 v 2.558594 h 4.835937 v 2.003906 h -7.49414 z m 8.705078,0 h 9.142578 v 2.003906 h -3.236328 v 8.355468 h -2.671875 v -8.355468 h -3.234375 z m 9.712891,0 h 9.142578 v 2.003906 h -3.236328 v 8.355468 h -2.671876 v -8.355468 h -3.234374 z m 10.75,0 h 7.492182 v 2.003906 h -4.835932 v 1.789062 h 4.488282 v 2.003906 h -4.488282 v 2.558594 h 4.835932 v 2.003906 h -7.492182 z m -48.113282,1.740234 c -0.33862,0 -0.659457,0.05909 -0.960937,0.179687 -0.29687,0.120593 -0.569831,0.321293 -0.820313,0.59961 -0.231811,0.259754 -0.421777,0.618917 -0.570312,1.078125 -0.143874,0.454571 -0.216797,0.982934 -0.216797,1.585937 0,0.616917 0.0699,1.144062 0.208984,1.580078 0.143874,0.431378 0.332617,0.78297 0.564453,1.056641 0.231811,0.273671 0.501622,0.475592 0.8125,0.605469 0.310778,0.129864 0.639166,0.195312 0.982422,0.195312 0.343257,0 0.669691,-0.06545 0.980469,-0.195312 0.310778,-0.134526 0.582541,-0.340844 0.814453,-0.619141 0.259754,-0.315417 0.452872,-0.68654 0.578125,-1.113281 0.125228,-0.431378 0.1875,-0.937768 0.1875,-1.517578 0,-0.621556 -0.07292,-1.149921 -0.216797,-1.585938 -0.143874,-0.436019 -0.330664,-0.787609 -0.5625,-1.05664 -0.236598,-0.278307 -0.511513,-0.480228 -0.822265,-0.605469 -0.306142,-0.125228 -0.625026,-0.1875 -0.958985,-0.1875 z m -31.886718,0.160156 v 2.191406 h 0.416015 c 0.422098,0 0.781256,-0.0076 1.078125,-0.02148 0.296844,-0.01386 0.531484,-0.05976 0.703125,-0.138672 0.241134,-0.106683 0.398376,-0.243172 0.472656,-0.410156 0.07408,-0.171616 0.111329,-0.36914 0.111329,-0.591797 h 0.002 c 0,-0.171616 -0.04462,-0.343994 -0.132813,-0.515625 -0.0834,-0.171616 -0.235021,-0.299314 -0.453125,-0.382812 -0.194772,-0.0742 -0.438185,-0.112527 -0.730469,-0.117188 -0.287571,-0.0093 -0.692653,-0.01367 -1.216796,-0.01367 z m 10.853515,0.0059 v 2.791015 h 0.820313 c 0.426733,0 0.784668,-0.02075 1.072265,-0.0625 0.287572,-0.04175 0.527834,-0.138675 0.722657,-0.287109 0.185447,-0.143799 0.320718,-0.301039 0.404296,-0.472656 0.08797,-0.175821 0.132598,-0.409937 0.132813,-0.701172 -2.82e-4,-0.258869 -0.05386,-0.482922 -0.160156,-0.667969 -0.106583,-0.18555 -0.290927,-0.332777 -0.550782,-0.439453 -0.180913,-0.0742 -0.391603,-0.118879 -0.632812,-0.132813 -0.241134,-0.01864 -0.521696,-0.02734 -0.841797,-0.02734 z m -10.853515,3.972656 v 2.582031 h 0.193359 c 0.75142,0 1.290522,-0.0013 1.615234,-0.0059 0.324687,-0.0045 0.622822,-0.06558 0.896485,-0.181641 0.278324,-0.115956 0.468265,-0.268799 0.570312,-0.458984 0.106583,-0.194822 0.160156,-0.417497 0.160156,-0.667969 0,-0.329331 -0.06334,-0.583504 -0.193359,-0.759766 -0.125228,-0.180913 -0.342297,-0.314225 -0.648437,-0.402344 -0.20863,-0.0603 -0.49479,-0.09302 -0.861329,-0.09766 -0.366437,-0.0045 -0.749521,-0.0078 -1.148437,-0.0078 z"
       id="rect892"
       transform="matrix(0.26458333,0,0,0.26458333,68.68205,59.686887)"
       inkscape:connector-curvature="0"
       sodipodi:nodetypes="ssssccsscsccsscscsccccsccccccccsccccccccccsccccccscccccssscccccccsscscccccccsccsscsscccscccsssccccscccccssccccscccsscscscccscsscssscccccssscsscccsccccccccscscssccccscccccscccccccsccscccccccscscccscccccscccccscsscccccscccscccccscscccccscccscccccscscscccsccccscccscccscccsccccccccccccccccccccccccscscsccscscscccccccccccccccccccccccccccccccccccccccccccccscccscccscccscccsccsccccccccscccscscccccscccscccscccsc" />
    <path
       sodipodi:nodetypes="ccccccc"
       inkscape:connector-curvature="0"
       id="path975"
       d="m 110.20535,70.32814 c 1.03307,-1.845955 -0.16079,-5.068249 -1.72412,-5.786033 0.11546,0.952282 0.24352,2.044755 -0.78899,3.039132 -1.29378,-2.648827 -0.73295,-5.086368 -0.26301,-6.575034 -2.2075,1.27873 -3.12363,3.154706 -3.76969,4.646351 -0.6191,-0.851081 -0.51451,-1.663575 -0.43833,-2.513112 -2.68056,2.008872 -3.0213,4.985722 -2.42544,6.750362"
       style="fill:none;fill-opacity:1;stroke:#ffffff;stroke-width:1.10115612;stroke-linecap:round;stroke-miterlimit:4;stroke-dasharray:none;stroke-opacity:1;opacity:0.8"
       inkscape:export-xdpi="96"
       inkscape:export-ydpi="96" />
    <path
       sodipodi:nodetypes="cc"
       inkscape:connector-curvature="0"
       id="path977"
       d="m 101.97039,67.126218 c -0.10474,0.610538 -0.33537,1.110073 0.0912,2.084274"
       style="fill:none;fill-opacity:1;stroke:#ffffff;stroke-width:0.42660403;stroke-linecap:round;stroke-miterlimit:4;stroke-dasharray:none;stroke-opacity:1;opacity:0.8"
       inkscape:export-xdpi="96"
       inkscape:export-ydpi="96" />
    <path
       sodipodi:nodetypes="cc"
       inkscape:connector-curvature="0"
       id="path977-1"
       d="m 109.45792,67.814736 c 0.10464,0.610526 0.0897,1.048662 -0.21402,1.838639"
       style="fill:none;fill-opacity:1;stroke:#ffffff;stroke-width:0.42660403;stroke-linecap:round;stroke-miterlimit:4;stroke-dasharray:none;stroke-opacity:1;opacity:0.8"
       inkscape:export-xdpi="96"
       inkscape:export-ydpi="96" />
    <g
       aria-label="smokeless, ordourless, burns long"
       style="font-style:normal;font-variant:normal;font-weight:bold;font-stretch:normal;font-size:2.21602631px;line-height:1.25;font-family:sans-serif;-inkscape-font-specification:'sans-serif Bold';fill:#ffffff;fill-opacity:1;stroke:none;stroke-width:1.37149334;stroke-linecap:round;stroke-miterlimit:4;stroke-dasharray:none;stroke-opacity:1;opacity:0.8"
       id="text1054">
      <path
         d="m 69.995745,76.874962 q 0,0.188276 -0.168799,0.304055 -0.168799,0.114696 -0.462033,0.114696 -0.162307,0 -0.294316,-0.0303 -0.13201,-0.0303 -0.212081,-0.06709 v -0.320285 h 0.03571 q 0.02922,0.02056 0.06709,0.04545 0.03895,0.0238 0.109287,0.05194 0.06059,0.02489 0.137419,0.04328 0.07683,0.01731 0.164471,0.01731 0.114697,0 0.169881,-0.02489 0.05518,-0.02597 0.05518,-0.07574 0,-0.04436 -0.03246,-0.06384 -0.03246,-0.02056 -0.123353,-0.03895 -0.04328,-0.0097 -0.117943,-0.02056 -0.07358,-0.0119 -0.134173,-0.02813 -0.165553,-0.04328 -0.245624,-0.134173 -0.08007,-0.09197 -0.08007,-0.228311 0,-0.175291 0.165553,-0.29107 0.166635,-0.116861 0.454459,-0.116861 0.136337,0 0.260772,0.02813 0.125517,0.02705 0.19585,0.05843 v 0.3073 h -0.03354 q -0.08656,-0.05951 -0.198014,-0.0963 -0.110369,-0.03787 -0.223983,-0.03787 -0.09414,0 -0.159061,0.02597 -0.06384,0.02597 -0.06384,0.07358 0,0.04328 0.02922,0.066 0.02921,0.02272 0.137419,0.04545 0.05951,0.0119 0.127682,0.0238 0.06925,0.01082 0.138501,0.02813 0.153651,0.04004 0.22723,0.1266 0.07358,0.08548 0.07358,0.214244 z"
         style="fill:#ffffff;fill-opacity:1;stroke-width:1.37149334"
         id="path870" />
      <path
         d="m 71.44352,76.398863 v 0.861307 h -0.3917 v -0.607027 q 0,-0.08873 -0.0043,-0.150404 -0.0043,-0.06276 -0.0238,-0.101712 -0.01948,-0.03895 -0.05951,-0.05627 -0.03895,-0.0184 -0.110368,-0.0184 -0.05735,0 -0.111451,0.02381 -0.0541,0.02272 -0.09738,0.04869 v 0.861307 h -0.389536 v -1.215136 h 0.389536 v 0.134174 q 0.10063,-0.07899 0.192604,-0.123353 0.09197,-0.04436 0.203424,-0.04436 0.120107,0 0.212081,0.0541 0.09197,0.05302 0.143912,0.156897 0.11686,-0.09847 0.227229,-0.154733 0.110368,-0.05627 0.216409,-0.05627 0.196932,0 0.298644,0.117943 0.102794,0.117943 0.102794,0.339762 v 0.790974 h -0.3917 v -0.607027 q 0,-0.08981 -0.0043,-0.151486 -0.0032,-0.06168 -0.02272,-0.10063 -0.01839,-0.03895 -0.05843,-0.05627 -0.04004,-0.0184 -0.112533,-0.0184 -0.04869,0 -0.09522,0.01731 -0.04653,0.01623 -0.113614,0.05518 z"
         style="fill:#ffffff;fill-opacity:1;stroke-width:1.37149334"
         id="path872" />
      <path
         d="m 73.843493,76.653143 q 0,0.299726 -0.175291,0.472854 -0.174209,0.172045 -0.490166,0.172045 -0.315957,0 -0.491248,-0.172045 -0.174209,-0.173128 -0.174209,-0.472854 0,-0.30189 0.175291,-0.473935 0.176374,-0.172045 0.490166,-0.172045 0.318121,0 0.491248,0.173127 0.174209,0.173127 0.174209,0.472853 z m -0.479345,0.295398 q 0.03787,-0.04653 0.05627,-0.11145 0.01948,-0.06601 0.01948,-0.181784 0,-0.107122 -0.01948,-0.179619 -0.01948,-0.0725 -0.0541,-0.115779 -0.03462,-0.04436 -0.08332,-0.06276 -0.04869,-0.01839 -0.104959,-0.01839 -0.05627,0 -0.10063,0.01515 -0.04328,0.01515 -0.08332,0.06059 -0.03571,0.0422 -0.05735,0.115779 -0.02056,0.07358 -0.02056,0.185029 0,0.09955 0.01839,0.173127 0.01839,0.0725 0.0541,0.116861 0.03462,0.0422 0.08223,0.06168 0.04869,0.01948 0.110368,0.01948 0.05302,0 0.100631,-0.01731 0.04869,-0.01839 0.08223,-0.06059 z"
         style="fill:#ffffff;fill-opacity:1;stroke-width:1.37149334"
         id="path874" />
      <path
         d="m 75.414621,77.26017 h -0.453376 l -0.340844,-0.52912 -0.10604,0.128764 v 0.400356 h -0.389536 v -1.683661 h 0.389536 v 1.005219 l 0.419833,-0.536694 h 0.449048 l -0.437146,0.52371 z"
         style="fill:#ffffff;fill-opacity:1;stroke-width:1.37149334"
         id="path876" />
      <path
         d="m 76.810458,76.724558 h -0.891604 q 0.0087,0.14283 0.108204,0.218573 0.10063,0.07574 0.295398,0.07574 0.123353,0 0.239132,-0.04436 0.115779,-0.04436 0.182866,-0.09522 h 0.04328 v 0.312711 q -0.132009,0.05302 -0.24887,0.07682 -0.116861,0.0238 -0.258608,0.0238 -0.365731,0 -0.560499,-0.16447 -0.194768,-0.164471 -0.194768,-0.468525 0,-0.300809 0.183947,-0.4761 0.18503,-0.176373 0.506397,-0.176373 0.29648,0 0.445802,0.150404 0.149322,0.149322 0.149322,0.430654 z m -0.387372,-0.228311 q -0.0032,-0.122271 -0.06059,-0.183948 -0.05735,-0.06168 -0.178537,-0.06168 -0.112533,0 -0.18503,0.05843 -0.0725,0.05843 -0.08115,0.187194 z"
         style="fill:#ffffff;fill-opacity:1;stroke-width:1.37149334"
         id="path878" />
      <path
         d="m 77.474833,77.26017 h -0.389535 v -1.683661 h 0.389535 z"
         style="fill:#ffffff;fill-opacity:1;stroke-width:1.37149334"
         id="path880" />
      <path
         d="m 79.039469,76.724558 h -0.891604 q 0.0087,0.14283 0.108204,0.218573 0.10063,0.07574 0.295398,0.07574 0.123353,0 0.239132,-0.04436 0.115779,-0.04436 0.182866,-0.09522 h 0.04328 v 0.312711 q -0.132009,0.05302 -0.24887,0.07682 -0.116861,0.0238 -0.258608,0.0238 -0.365731,0 -0.560499,-0.16447 -0.194768,-0.164471 -0.194768,-0.468525 0,-0.300809 0.183947,-0.4761 0.18503,-0.176373 0.506397,-0.176373 0.29648,0 0.445802,0.150404 0.149322,0.149322 0.149322,0.430654 z m -0.387371,-0.228311 q -0.0032,-0.122271 -0.06059,-0.183948 -0.05735,-0.06168 -0.178537,-0.06168 -0.112533,0 -0.18503,0.05843 -0.0725,0.05843 -0.08115,0.187194 z"
         style="fill:#ffffff;fill-opacity:1;stroke-width:1.37149334"
         id="path882" />
      <path
         d="m 80.370383,76.874962 q 0,0.188276 -0.168799,0.304055 -0.168799,0.114696 -0.462033,0.114696 -0.162306,0 -0.294316,-0.0303 -0.132009,-0.0303 -0.21208,-0.06709 v -0.320285 h 0.03571 q 0.02922,0.02056 0.06709,0.04545 0.03895,0.0238 0.109286,0.05194 0.0606,0.02489 0.13742,0.04328 0.07682,0.01731 0.164471,0.01731 0.114696,0 0.169881,-0.02489 0.05518,-0.02597 0.05518,-0.07574 0,-0.04436 -0.03246,-0.06384 -0.03246,-0.02056 -0.123353,-0.03895 -0.04328,-0.0097 -0.117943,-0.02056 -0.07358,-0.0119 -0.134174,-0.02813 -0.165552,-0.04328 -0.245624,-0.134173 -0.08007,-0.09197 -0.08007,-0.228311 0,-0.175291 0.165553,-0.29107 0.166635,-0.116861 0.454458,-0.116861 0.136338,0 0.260773,0.02813 0.125517,0.02705 0.19585,0.05843 v 0.3073 h -0.03354 q -0.08656,-0.05951 -0.198015,-0.0963 -0.110368,-0.03787 -0.223983,-0.03787 -0.09414,0 -0.15906,0.02597 -0.06384,0.02597 -0.06384,0.07358 0,0.04328 0.02921,0.066 0.02922,0.02272 0.13742,0.04545 0.05951,0.0119 0.127681,0.0238 0.06925,0.01082 0.138502,0.02813 0.15365,0.04004 0.227229,0.1266 0.07358,0.08548 0.07358,0.214244 z"
         style="fill:#ffffff;fill-opacity:1;stroke-width:1.37149334"
         id="path884" />
      <path
         d="m 81.686149,76.874962 q 0,0.188276 -0.168798,0.304055 -0.168799,0.114696 -0.462033,0.114696 -0.162307,0 -0.294316,-0.0303 -0.13201,-0.0303 -0.212081,-0.06709 v -0.320285 h 0.03571 q 0.02921,0.02056 0.06709,0.04545 0.03895,0.0238 0.109287,0.05194 0.06059,0.02489 0.137419,0.04328 0.07683,0.01731 0.164471,0.01731 0.114697,0 0.169881,-0.02489 0.05518,-0.02597 0.05518,-0.07574 0,-0.04436 -0.03246,-0.06384 -0.03246,-0.02056 -0.123353,-0.03895 -0.04328,-0.0097 -0.117943,-0.02056 -0.07358,-0.0119 -0.134173,-0.02813 -0.165553,-0.04328 -0.245624,-0.134173 -0.08007,-0.09197 -0.08007,-0.228311 0,-0.175291 0.165553,-0.29107 0.166635,-0.116861 0.454459,-0.116861 0.136337,0 0.260772,0.02813 0.125517,0.02705 0.19585,0.05843 v 0.3073 h -0.03354 q -0.08656,-0.05951 -0.198014,-0.0963 -0.110369,-0.03787 -0.223983,-0.03787 -0.09414,0 -0.159061,0.02597 -0.06384,0.02597 -0.06384,0.07358 0,0.04328 0.02922,0.066 0.02921,0.02272 0.137419,0.04545 0.05951,0.0119 0.127682,0.0238 0.06925,0.01082 0.138501,0.02813 0.15365,0.04004 0.227229,0.1266 0.07358,0.08548 0.07358,0.214244 z"
         style="fill:#ffffff;fill-opacity:1;stroke-width:1.37149334"
         id="path886" />
      <path
         d="m 82.430596,76.834927 -0.389536,0.825599 h -0.241296 l 0.213163,-0.825599 z"
         style="fill:#ffffff;fill-opacity:1;stroke-width:1.37149334"
         id="path888" />
      <path
         d="m 84.74617,76.653143 q 0,0.299726 -0.175291,0.472854 -0.174209,0.172045 -0.490166,0.172045 -0.315957,0 -0.491248,-0.172045 -0.174209,-0.173128 -0.174209,-0.472854 0,-0.30189 0.175291,-0.473935 0.176373,-0.172045 0.490166,-0.172045 0.318121,0 0.491248,0.173127 0.174209,0.173127 0.174209,0.472853 z m -0.479345,0.295398 q 0.03787,-0.04653 0.05627,-0.11145 0.01948,-0.06601 0.01948,-0.181784 0,-0.107122 -0.01948,-0.179619 -0.01948,-0.0725 -0.0541,-0.115779 -0.03463,-0.04436 -0.08332,-0.06276 -0.04869,-0.01839 -0.104958,-0.01839 -0.05627,0 -0.10063,0.01515 -0.04328,0.01515 -0.08332,0.06059 -0.03571,0.0422 -0.05735,0.115779 -0.02056,0.07358 -0.02056,0.185029 0,0.09955 0.01839,0.173127 0.01839,0.0725 0.0541,0.116861 0.03463,0.0422 0.08224,0.06168 0.04869,0.01948 0.110368,0.01948 0.05302,0 0.10063,-0.01731 0.04869,-0.01839 0.08224,-0.06059 z"
         style="fill:#ffffff;fill-opacity:1;stroke-width:1.37149334"
         id="path890" />
      <path
         d="m 85.908285,76.416176 h -0.03463 q -0.02489,-0.0087 -0.08007,-0.01298 -0.05518,-0.0043 -0.09197,-0.0043 -0.08332,0 -0.147158,0.01082 -0.06384,0.01082 -0.13742,0.03679 v 0.813697 h -0.389536 v -1.215136 h 0.389536 v 0.178538 q 0.128763,-0.110369 0.223983,-0.146076 0.09522,-0.03679 0.175291,-0.03679 0.02056,0 0.04653,0.0011 0.02597,0.0011 0.04545,0.0032 z"
         style="fill:#ffffff;fill-opacity:1;stroke-width:1.37149334"
         id="path892" />
      <path
         d="m 87.312779,77.26017 h -0.389536 v -0.126599 q -0.10063,0.08223 -0.188276,0.121189 -0.08765,0.03895 -0.202342,0.03895 -0.221819,0 -0.354911,-0.170963 -0.133091,-0.170963 -0.133091,-0.46095 0,-0.154733 0.04436,-0.273758 0.04545,-0.120106 0.123353,-0.205588 0.07358,-0.08115 0.178537,-0.125517 0.104958,-0.04545 0.209917,-0.04545 0.109286,0 0.178537,0.0238 0.07033,0.02272 0.143912,0.05843 v -0.517217 h 0.389536 z M 86.923243,76.924736 V 76.32853 q -0.04112,-0.01731 -0.08656,-0.02489 -0.04545,-0.0076 -0.08332,-0.0076 -0.15365,0 -0.230476,0.0963 -0.07682,0.09522 -0.07682,0.2651 0,0.178538 0.06168,0.259691 0.06168,0.08007 0.198014,0.08007 0.05302,0 0.112532,-0.01948 0.05951,-0.02056 0.104959,-0.05302 z"
         style="fill:#ffffff;fill-opacity:1;stroke-width:1.37149334"
         id="path894" />
      <path
         d="m 88.922859,76.653143 q 0,0.299726 -0.175291,0.472854 -0.174209,0.172045 -0.490166,0.172045 -0.315957,0 -0.491248,-0.172045 -0.174209,-0.173128 -0.174209,-0.472854 0,-0.30189 0.175291,-0.473935 0.176373,-0.172045 0.490166,-0.172045 0.318121,0 0.491248,0.173127 0.174209,0.173127 0.174209,0.472853 z m -0.479345,0.295398 q 0.03787,-0.04653 0.05627,-0.11145 0.01948,-0.06601 0.01948,-0.181784 0,-0.107122 -0.01948,-0.179619 -0.01948,-0.0725 -0.0541,-0.115779 -0.03463,-0.04436 -0.08332,-0.06276 -0.04869,-0.01839 -0.104958,-0.01839 -0.05627,0 -0.10063,0.01515 -0.04328,0.01515 -0.08332,0.06059 -0.03571,0.0422 -0.05735,0.115779 -0.02056,0.07358 -0.02056,0.185029 0,0.09955 0.01839,0.173127 0.01839,0.0725 0.0541,0.116861 0.03463,0.0422 0.08224,0.06168 0.04869,0.01948 0.110368,0.01948 0.05302,0 0.10063,-0.01731 0.04869,-0.01839 0.08224,-0.06059 z"
         style="fill:#ffffff;fill-opacity:1;stroke-width:1.37149334"
         id="path896" />
      <path
         d="m 90.414999,77.26017 h -0.389535 v -0.134173 q -0.108205,0.08223 -0.198015,0.125517 -0.08981,0.0422 -0.214244,0.0422 -0.20126,0 -0.310547,-0.115778 -0.108204,-0.115779 -0.108204,-0.341926 v -0.790975 h 0.3917 v 0.602699 q 0,0.09197 0.0054,0.15365 0.0065,0.06059 0.02813,0.10063 0.02056,0.04004 0.06168,0.05843 0.0422,0.01839 0.11686,0.01839 0.04977,0 0.110369,-0.01839 0.06059,-0.01839 0.116861,-0.0541 v -0.861308 h 0.389535 z"
         style="fill:#ffffff;fill-opacity:1;stroke-width:1.37149334"
         id="path898" />
      <path
         d="m 91.66476,76.416176 h -0.03463 q -0.02489,-0.0087 -0.08007,-0.01298 -0.05519,-0.0043 -0.09197,-0.0043 -0.08332,0 -0.147158,0.01082 -0.06384,0.01082 -0.13742,0.03679 v 0.813697 h -0.389536 v -1.215136 h 0.389536 v 0.178538 q 0.128764,-0.110369 0.223983,-0.146076 0.09522,-0.03679 0.175292,-0.03679 0.02056,0 0.04653,0.0011 0.02597,0.0011 0.04545,0.0032 z"
         style="fill:#ffffff;fill-opacity:1;stroke-width:1.37149334"
         id="path900" />
      <path
         d="m 92.277198,77.26017 h -0.389536 v -1.683661 h 0.389536 z"
         style="fill:#ffffff;fill-opacity:1;stroke-width:1.37149334"
         id="path902" />
      <path
         d="m 93.841832,76.724558 h -0.891605 q 0.0087,0.14283 0.108205,0.218573 0.10063,0.07574 0.295398,0.07574 0.123353,0 0.239132,-0.04436 0.115778,-0.04436 0.182865,-0.09522 h 0.04328 v 0.312711 q -0.13201,0.05302 -0.24887,0.07682 -0.116861,0.0238 -0.258609,0.0238 -0.365731,0 -0.560499,-0.16447 -0.194768,-0.164471 -0.194768,-0.468525 0,-0.300809 0.183948,-0.4761 0.185029,-0.176373 0.506397,-0.176373 0.29648,0 0.445802,0.150404 0.149322,0.149322 0.149322,0.430654 z M 93.45446,76.496247 q -0.0032,-0.122271 -0.06059,-0.183948 -0.05735,-0.06168 -0.178538,-0.06168 -0.112532,0 -0.185029,0.05843 -0.0725,0.05843 -0.08115,0.187194 z"
         style="fill:#ffffff;fill-opacity:1;stroke-width:1.37149334"
         id="path904" />
      <path
         d="m 95.172747,76.874962 q 0,0.188276 -0.168799,0.304055 -0.168799,0.114696 -0.462033,0.114696 -0.162307,0 -0.294316,-0.0303 -0.13201,-0.0303 -0.212081,-0.06709 v -0.320285 h 0.03571 q 0.02922,0.02056 0.06709,0.04545 0.03895,0.0238 0.109287,0.05194 0.06059,0.02489 0.137419,0.04328 0.07683,0.01731 0.164471,0.01731 0.114697,0 0.169881,-0.02489 0.05518,-0.02597 0.05518,-0.07574 0,-0.04436 -0.03246,-0.06384 -0.03246,-0.02056 -0.123353,-0.03895 -0.04328,-0.0097 -0.117943,-0.02056 -0.07358,-0.0119 -0.134173,-0.02813 -0.165553,-0.04328 -0.245624,-0.134173 -0.08007,-0.09197 -0.08007,-0.228311 0,-0.175291 0.165553,-0.29107 0.166635,-0.116861 0.454459,-0.116861 0.136337,0 0.260772,0.02813 0.125517,0.02705 0.19585,0.05843 v 0.3073 h -0.03354 q -0.08656,-0.05951 -0.198014,-0.0963 -0.110369,-0.03787 -0.223983,-0.03787 -0.09414,0 -0.159061,0.02597 -0.06384,0.02597 -0.06384,0.07358 0,0.04328 0.02921,0.066 0.02922,0.02272 0.137419,0.04545 0.05951,0.0119 0.127682,0.0238 0.06925,0.01082 0.138501,0.02813 0.153651,0.04004 0.22723,0.1266 0.07358,0.08548 0.07358,0.214244 z"
         style="fill:#ffffff;fill-opacity:1;stroke-width:1.37149334"
         id="path906" />
      <path
         d="m 96.488512,76.874962 q 0,0.188276 -0.168799,0.304055 -0.168799,0.114696 -0.462033,0.114696 -0.162306,0 -0.294316,-0.0303 -0.132009,-0.0303 -0.21208,-0.06709 v -0.320285 h 0.03571 q 0.02922,0.02056 0.06709,0.04545 0.03895,0.0238 0.109286,0.05194 0.06059,0.02489 0.13742,0.04328 0.07682,0.01731 0.164471,0.01731 0.114696,0 0.16988,-0.02489 0.05519,-0.02597 0.05519,-0.07574 0,-0.04436 -0.03246,-0.06384 -0.03246,-0.02056 -0.123353,-0.03895 -0.04328,-0.0097 -0.117942,-0.02056 -0.07358,-0.0119 -0.134174,-0.02813 -0.165553,-0.04328 -0.245624,-0.134173 -0.08007,-0.09197 -0.08007,-0.228311 0,-0.175291 0.165553,-0.29107 0.166634,-0.116861 0.454458,-0.116861 0.136338,0 0.260773,0.02813 0.125517,0.02705 0.19585,0.05843 v 0.3073 h -0.03354 q -0.08656,-0.05951 -0.198014,-0.0963 -0.110368,-0.03787 -0.223983,-0.03787 -0.09414,0 -0.15906,0.02597 -0.06384,0.02597 -0.06384,0.07358 0,0.04328 0.02922,0.066 0.02921,0.02272 0.13742,0.04545 0.05951,0.0119 0.127681,0.0238 0.06925,0.01082 0.138502,0.02813 0.15365,0.04004 0.227229,0.1266 0.07358,0.08548 0.07358,0.214244 z"
         style="fill:#ffffff;fill-opacity:1;stroke-width:1.37149334"
         id="path908" />
      <path
         d="m 97.232958,76.834927 -0.389536,0.825599 h -0.241296 l 0.213163,-0.825599 z"
         style="fill:#ffffff;fill-opacity:1;stroke-width:1.37149334"
         id="path910" />
      <path
         d="m 99.574502,76.635831 q 0,0.286741 -0.159061,0.467443 -0.157978,0.180701 -0.394946,0.180701 -0.101712,0 -0.178537,-0.02164 -0.07682,-0.02164 -0.146076,-0.06276 l -0.01623,0.06059 h -0.373305 v -1.683661 h 0.389536 v 0.595125 q 0.08981,-0.07142 0.182865,-0.115779 0.09414,-0.04436 0.216409,-0.04436 0.230475,0 0.35491,0.166635 0.124436,0.165553 0.124436,0.457705 z m -0.401439,0.0076 q 0,-0.162307 -0.05518,-0.249952 -0.05518,-0.08765 -0.196932,-0.08765 -0.05518,0 -0.113615,0.01731 -0.05843,0.01623 -0.11145,0.04761 v 0.610273 q 0.0422,0.01515 0.08007,0.02056 0.03787,0.0054 0.09089,0.0054 0.154732,0 0.230475,-0.09089 0.07574,-0.09089 0.07574,-0.272675 z"
         style="fill:#ffffff;fill-opacity:1;stroke-width:1.37149334"
         id="path912" />
      <path
         d="m 101.06664,77.26017 h -0.38953 v -0.134173 q -0.10821,0.08223 -0.19802,0.125517 -0.0898,0.0422 -0.21424,0.0422 -0.20126,0 -0.31055,-0.115778 -0.108204,-0.115779 -0.108204,-0.341926 v -0.790975 h 0.391704 v 0.602699 q 0,0.09197 0.005,0.15365 0.006,0.06059 0.0281,0.10063 0.0206,0.04004 0.0617,0.05843 0.0422,0.01839 0.11686,0.01839 0.0498,0 0.11036,-0.01839 0.0606,-0.01839 0.11687,-0.0541 v -0.861308 h 0.38953 z"
         style="fill:#ffffff;fill-opacity:1;stroke-width:1.37149334"
         id="path914" />
      <path
         d="m 102.3164,76.416176 h -0.0346 q -0.0249,-0.0087 -0.0801,-0.01298 -0.0552,-0.0043 -0.092,-0.0043 -0.0833,0 -0.14716,0.01082 -0.0638,0.01082 -0.13742,0.03679 v 0.813697 h -0.38953 v -1.215136 h 0.38953 v 0.178538 q 0.12877,-0.110369 0.22399,-0.146076 0.0952,-0.03679 0.17529,-0.03679 0.0206,0 0.0465,0.0011 0.026,0.0011 0.0454,0.0032 z"
         style="fill:#ffffff;fill-opacity:1;stroke-width:1.37149334"
         id="path916" />
      <path
         d="m 103.75985,77.26017 h -0.3917 v -0.602699 q 0,-0.07358 -0.008,-0.146076 -0.008,-0.07358 -0.026,-0.108204 -0.0216,-0.04004 -0.0638,-0.05843 -0.0411,-0.0184 -0.11578,-0.0184 -0.053,0 -0.1082,0.01731 -0.0541,0.01731 -0.11794,0.05518 v 0.861307 h -0.38954 v -1.215136 h 0.38954 v 0.134174 q 0.10387,-0.08115 0.19909,-0.124435 0.0963,-0.04328 0.21317,-0.04328 0.19693,0 0.3073,0.114697 0.11145,0.114696 0.11145,0.343008 z"
         style="fill:#ffffff;fill-opacity:1;stroke-width:1.37149334"
         id="path918" />
      <path
         d="m 105.17516,76.874962 q 0,0.188276 -0.1688,0.304055 -0.1688,0.114696 -0.46203,0.114696 -0.16231,0 -0.29432,-0.0303 -0.13201,-0.0303 -0.21208,-0.06709 v -0.320285 h 0.0357 q 0.0292,0.02056 0.0671,0.04545 0.0389,0.0238 0.10928,0.05194 0.0606,0.02489 0.13742,0.04328 0.0768,0.01731 0.16447,0.01731 0.1147,0 0.16988,-0.02489 0.0552,-0.02597 0.0552,-0.07574 0,-0.04436 -0.0325,-0.06384 -0.0325,-0.02056 -0.12336,-0.03895 -0.0433,-0.0097 -0.11794,-0.02056 -0.0736,-0.0119 -0.13417,-0.02813 -0.16555,-0.04328 -0.24563,-0.134173 -0.0801,-0.09197 -0.0801,-0.228311 0,-0.175291 0.16556,-0.29107 0.16663,-0.116861 0.45445,-0.116861 0.13634,0 0.26078,0.02813 0.12551,0.02705 0.19585,0.05843 v 0.3073 h -0.0336 q -0.0866,-0.05951 -0.19801,-0.0963 -0.11037,-0.03787 -0.22398,-0.03787 -0.0941,0 -0.15906,0.02597 -0.0638,0.02597 -0.0638,0.07358 0,0.04328 0.0292,0.066 0.0292,0.02272 0.13742,0.04545 0.0595,0.0119 0.12768,0.0238 0.0692,0.01082 0.1385,0.02813 0.15365,0.04004 0.22723,0.1266 0.0736,0.08548 0.0736,0.214244 z"
         style="fill:#ffffff;fill-opacity:1;stroke-width:1.37149334"
         id="path920" />
      <path
         d="m 106.58182,77.26017 h -0.38954 v -1.683661 h 0.38954 z"
         style="fill:#ffffff;fill-opacity:1;stroke-width:1.37149334"
         id="path922" />
      <path
         d="m 108.1919,76.653143 q 0,0.299726 -0.17529,0.472854 -0.17421,0.172045 -0.49017,0.172045 -0.31595,0 -0.49124,-0.172045 -0.17421,-0.173128 -0.17421,-0.472854 0,-0.30189 0.17529,-0.473935 0.17637,-0.172045 0.49016,-0.172045 0.31812,0 0.49125,0.173127 0.17421,0.173127 0.17421,0.472853 z m -0.47935,0.295398 q 0.0379,-0.04653 0.0563,-0.11145 0.0195,-0.06601 0.0195,-0.181784 0,-0.107122 -0.0195,-0.179619 -0.0195,-0.0725 -0.0541,-0.115779 -0.0346,-0.04436 -0.0833,-0.06276 -0.0487,-0.01839 -0.10496,-0.01839 -0.0563,0 -0.10063,0.01515 -0.0433,0.01515 -0.0833,0.06059 -0.0357,0.0422 -0.0573,0.115779 -0.0206,0.07358 -0.0206,0.185029 0,0.09955 0.0184,0.173127 0.0184,0.0725 0.0541,0.116861 0.0346,0.0422 0.0822,0.06168 0.0487,0.01948 0.11037,0.01948 0.053,0 0.10063,-0.01731 0.0487,-0.01839 0.0822,-0.06059 z"
         style="fill:#ffffff;fill-opacity:1;stroke-width:1.37149334"
         id="path924" />
      <path
         d="m 109.69378,77.26017 h -0.3917 v -0.602699 q 0,-0.07358 -0.008,-0.146076 -0.008,-0.07358 -0.026,-0.108204 -0.0216,-0.04004 -0.0638,-0.05843 -0.0411,-0.0184 -0.11578,-0.0184 -0.053,0 -0.1082,0.01731 -0.0541,0.01731 -0.11794,0.05518 v 0.861307 h -0.38954 v -1.215136 h 0.38954 v 0.134174 q 0.10387,-0.08115 0.19909,-0.124435 0.0963,-0.04328 0.21317,-0.04328 0.19693,0 0.3073,0.114697 0.11145,0.114696 0.11145,0.343008 z"
         style="fill:#ffffff;fill-opacity:1;stroke-width:1.37149334"
         id="path926" />
      <path
         d="m 111.23461,77.120586 q 0,0.170963 -0.0487,0.287824 -0.0487,0.116861 -0.13634,0.182865 -0.0877,0.06709 -0.21208,0.0963 -0.12336,0.0303 -0.27917,0.0303 -0.1266,0 -0.24995,-0.01515 -0.12227,-0.01515 -0.21208,-0.03679 v -0.304055 h 0.0476 q 0.0714,0.02813 0.17421,0.05086 0.10279,0.0238 0.18394,0.0238 0.10821,0 0.1753,-0.02056 0.0682,-0.01948 0.10387,-0.05627 0.0335,-0.03463 0.0487,-0.08873 0.0152,-0.0541 0.0152,-0.129845 v -0.02272 q -0.0703,0.05735 -0.15581,0.09089 -0.0855,0.03354 -0.19044,0.03354 -0.25536,0 -0.39387,-0.15365 -0.1385,-0.15365 -0.1385,-0.467443 0,-0.150404 0.0422,-0.259691 0.0422,-0.109286 0.11903,-0.190439 0.0714,-0.07574 0.17529,-0.117943 0.10496,-0.0422 0.21424,-0.0422 0.0985,0 0.17854,0.0238 0.0811,0.02272 0.14716,0.06384 l 0.0141,-0.0541 h 0.37764 z m -0.38954,-0.24346 v -0.55076 q -0.0335,-0.01407 -0.0822,-0.02164 -0.0487,-0.0087 -0.0876,-0.0087 -0.15365,0 -0.23047,0.08873 -0.0768,0.08765 -0.0768,0.245624 0,0.175291 0.0649,0.244542 0.066,0.06925 0.19477,0.06925 0.0584,0 0.1147,-0.01839 0.0563,-0.01839 0.10279,-0.04869 z"
         style="fill:#ffffff;fill-opacity:1;stroke-width:1.37149334"
         id="path928" />
    </g>
    <path
       sodipodi:nodetypes="sssccss"
       inkscape:connector-curvature="0"
       id="path958"
       d="m 100.09957,72.46697 c -0.0648,0.312394 0.65421,1.617407 0.82902,1.658033 0.40537,0.0942 2.10457,0.271034 2.76339,0.27634 0.55351,0.0044 1.50451,-0.951833 1.50451,-0.951833 -0.84181,-1.217035 -0.10048,-2.199053 0.33775,-2.794093 0,0 -1.44396,-0.928408 -3.68452,-0.399158 -0.64964,0.153453 -1.70098,1.973806 -1.75015,2.210711 z"
       style="fill:#ffffff;fill-opacity:1;stroke:#000000;stroke-width:0.45699999;stroke-miterlimit:4;stroke-dasharray:none;stroke-opacity:1;opacity:0.8" />
    <path
       sodipodi:nodetypes="cac"
       inkscape:connector-curvature="0"
       id="path960"
       d="m 102.55592,72.405561 c 0,0 0.56672,0.04249 0.79832,-0.09211 0.32919,-0.19132 0.67549,-0.921132 0.67549,-0.921132"
       style="fill:#ffffff;fill-opacity:1;stroke:#000000;stroke-width:0.57857484;stroke-linecap:round;stroke-miterlimit:4;stroke-dasharray:none;stroke-opacity:1" />
    <path
       sodipodi:nodetypes="sssssss"
       inkscape:connector-curvature="0"
       id="path962"
       d="m 104.85155,72.405561 c 0.0353,-0.266387 0.49004,-1.409888 0.79831,-1.596623 0.135,-0.08178 2.56613,-0.424422 3.40818,0 0.46556,0.234656 1.52547,1.275426 1.68874,2.180005 0.0508,0.281378 -0.53966,1.412018 -0.82902,1.565921 -0.75084,0.399351 -2.73886,0.356143 -3.13184,0.184225 -1.00968,-0.441712 -1.95115,-2.207075 -1.93437,-2.333528 z"
       style="fill:#ffffff;fill-opacity:1;stroke:#000000;stroke-width:0.1;stroke-linecap:round;stroke-miterlimit:4;stroke-dasharray:none;stroke-opacity:1;opacity:0.8" />
    <path
       sodipodi:nodetypes="cac"
       inkscape:connector-curvature="0"
       id="path964"
       d="m 108.53607,72.95824 c 0,0 -0.6688,0.113038 -0.95184,-0.0307 -0.37056,-0.188197 -0.7676,-0.98254 -0.7676,-0.98254"
       style="fill:none;fill-opacity:1;stroke:#000000;stroke-width:0.47002423;stroke-linecap:round;stroke-miterlimit:4;stroke-dasharray:none;stroke-opacity:1" />
    <path
       sodipodi:nodetypes="cssccc"
       inkscape:connector-curvature="0"
       id="path966"
       d="m 103.2871,69.675741 c 0,0 0.69479,-0.862177 1.50451,-0.997891 0.61687,-0.10339 2.12086,0.251032 2.86077,0.63843 0.58334,0.305426 0.65487,0.835377 0.65487,0.835377 -0.78861,-0.04148 -2.07372,-0.01142 -2.74803,0.337749 -0.25709,-0.544106 -1.30107,-0.805541 -2.27212,-0.813665 z"
       style="fill:#ffffff;fill-opacity:1;stroke:#000000;stroke-width:0.03582171;stroke-linecap:round;stroke-miterlimit:4;stroke-dasharray:none;stroke-opacity:1;opacity:0.8" />
  </g>
</svg>
