<?xml version="1.0" encoding="UTF-8" standalone="no"?>
<!-- Created with Inkscape (http://www.inkscape.org/) -->

<svg
   xmlns:dc="http://purl.org/dc/elements/1.1/"
   xmlns:cc="http://creativecommons.org/ns#"
   xmlns:rdf="http://www.w3.org/1999/02/22-rdf-syntax-ns#"
   xmlns:svg="http://www.w3.org/2000/svg"
   xmlns="http://www.w3.org/2000/svg"
   xmlns:sodipodi="http://sodipodi.sourceforge.net/DTD/sodipodi-0.dtd"
   xmlns:inkscape="http://www.inkscape.org/namespaces/inkscape"
   width="24.827238mm"
   height="36.291mm"
   viewBox="0 0 24.827238 36.291"
   version="1.1"
   id="svg4745"
   inkscape:version="0.92.4 (5da689c313, 2019-01-14)"
   sodipodi:docname="briquettes-7.svg">
  <defs
     id="defs4739" />
  <sodipodi:namedview
     id="base"
     pagecolor="#ffffff"
     bordercolor="#666666"
     borderopacity="1.0"
     inkscape:pageopacity="0.0"
     inkscape:pageshadow="2"
     inkscape:zoom="0.35"
     inkscape:cx="-294.51096"
     inkscape:cy="-59.99"
     inkscape:document-units="mm"
     inkscape:current-layer="layer1"
     showgrid="false"
     fit-margin-top="0"
     fit-margin-left="0"
     fit-margin-right="0"
     fit-margin-bottom="0"
     inkscape:window-width="1366"
     inkscape:window-height="705"
     inkscape:window-x="-8"
     inkscape:window-y="-8"
     inkscape:window-maximized="1" />
  <metadata
     id="metadata4742">
    <rdf:RDF>
      <cc:Work
         rdf:about="">
        <dc:format>image/svg+xml</dc:format>
        <dc:type
           rdf:resource="http://purl.org/dc/dcmitype/StillImage" />
        <dc:title></dc:title>
      </cc:Work>
    </rdf:RDF>
  </metadata>
  <g
     inkscape:label="Layer 1"
     inkscape:groupmode="layer"
     id="layer1"
     transform="translate(-51.086382,-96.66998)">
    <g
       transform="translate(-17.184065,-203.88036)"
       id="g4702">
      <path
         sodipodi:nodetypes="cccccccsc"
         inkscape:connector-curvature="0"
         id="path1016"
         d="m 88.20558,303.5078 c -2.086045,-2.82444 -6.545074,-2.03139 -6.161645,2.72637 -0.987341,-0.80957 -9.960672,-1.61004 -6.432464,7.28839 -1.76894,-0.78302 -4.064576,1.05026 -2.060957,3.20992 l -0.821067,0.79881 c -1.003923,-0.35854 -2.505995,-4.59643 1.012562,-5.19256 -1.381959,-9.09514 7.014584,-7.72282 7.328024,-7.62588 -0.300502,-2.28943 3.642067,-6.75088 7.821056,-2.08083 0.678845,0.75862 -0.04023,1.48007 -0.685509,0.87578 z"
         style="fill:#cbcdc2;fill-opacity:1;stroke:#ffffff;stroke-width:0.06653038;stroke-miterlimit:4;stroke-dasharray:none;stroke-opacity:1" />
      <path
         style="fill:#cbcdc2;fill-opacity:1;stroke:#ffffff;stroke-width:0.06653038;stroke-miterlimit:4;stroke-dasharray:none;stroke-opacity:1"
         d="m 90.185504,301.61179 c 2.793682,2.12706 1.935604,6.57403 -2.816047,6.12119 0.795079,0.99905 1.464446,9.98312 -7.381525,6.32537 0.757105,1.78019 -1.109492,4.0488 -3.239661,2.01387 l -0.810719,0.80932 c 0.343849,1.00905 4.559347,2.57283 5.20679,-0.93665 9.073997,1.5146 7.824413,-6.90108 7.732059,-7.2159 2.284796,0.3339 6.803335,-3.54311 2.194786,-7.78984 -0.748621,-0.68985 -1.480496,0.0186 -0.885683,0.67264 z"
         id="path1018"
         inkscape:connector-curvature="0"
         sodipodi:nodetypes="cccccccsc" />
      <path
         sodipodi:nodetypes="ccccccc"
         inkscape:connector-curvature="0"
         id="path1029"
         d="m 85.031897,321.16478 v 4.73923 l -8.327495,-2.57272 -8.327495,2.70812 0.135404,-4.73922 8.192091,-2.70813 z"
         style="fill:#0e7a3c;fill-opacity:1;stroke:#ffffff;stroke-width:0.20470886;stroke-miterlimit:4;stroke-dasharray:none;stroke-opacity:1" />
      <path
         sodipodi:nodetypes="cc"
         inkscape:connector-curvature="0"
         id="path1033"
         d="m 76.772099,318.59206 v 18.0405"
         style="fill:none;fill-opacity:1;stroke:#ffffff;stroke-width:0.20470886;stroke-miterlimit:4;stroke-dasharray:none;stroke-opacity:1" />
      <path
         sodipodi:nodetypes="ccc"
         inkscape:connector-curvature="0"
         id="path1035"
         d="m 85.135848,323.72928 -8.41162,-2.74777 -8.24336,2.80387"
         style="fill:none;fill-opacity:1;stroke:#ffffff;stroke-width:0.20470886;stroke-miterlimit:4;stroke-dasharray:none;stroke-opacity:1" />
      <path
         sodipodi:nodetypes="cc"
         inkscape:connector-curvature="0"
         id="path1043"
         d="m 83.1362,320.48775 v 2.50162"
         style="fill:none;fill-opacity:1;stroke:#ffffff;stroke-width:0.20470886;stroke-miterlimit:4;stroke-dasharray:none;stroke-opacity:1" />
      <path
         sodipodi:nodetypes="cc"
         inkscape:connector-curvature="0"
         id="path1045"
         d="m 79.751043,321.87326 v 2.50983"
         style="fill:none;fill-opacity:1;stroke:#ffffff;stroke-width:0.20470886;stroke-miterlimit:4;stroke-dasharray:none;stroke-opacity:1" />
      <path
         sodipodi:nodetypes="cc"
         inkscape:connector-curvature="0"
         id="path1047"
         d="m 73.793165,321.87326 v 2.40587"
         style="fill:none;fill-opacity:1;stroke:#ffffff;stroke-width:0.20470886;stroke-miterlimit:4;stroke-dasharray:none;stroke-opacity:1" />
      <path
         sodipodi:nodetypes="cc"
         inkscape:connector-curvature="0"
         id="path1049"
         d="m 70.407997,320.62316 v 2.4934"
         style="fill:none;fill-opacity:1;stroke:#ffffff;stroke-width:0.20470886;stroke-miterlimit:4;stroke-dasharray:none;stroke-opacity:1" />
      <g
         style="fill:#0e7a3c;fill-opacity:1"
         transform="matrix(-1.0235443,0,0,1.0235443,266.07022,-38.209081)"
         id="g1123">
        <path
           style="fill:#0e7a3c;fill-opacity:1;stroke:#ffffff;stroke-width:0.2;stroke-miterlimit:4;stroke-dasharray:none;stroke-opacity:1"
           d="m 178.06458,364.73333 v -8.86354 l 7.01146,-2.24896 6.74687,2.11667 v 9.12812 l -6.87916,1.45521 z"
           id="path1031"
           inkscape:connector-curvature="0"
           sodipodi:nodetypes="ccccccc" />
        <path
           style="fill:#0e7a3c;fill-opacity:1;stroke:#ffffff;stroke-width:0.2;stroke-miterlimit:4;stroke-dasharray:none;stroke-opacity:1"
           d="m 178.06458,358.25104 7.01146,-1.45521 6.73083,1.26812"
           id="path1037"
           inkscape:connector-curvature="0"
           sodipodi:nodetypes="ccc" />
        <path
           style="fill:#0e7a3c;fill-opacity:1;stroke:#ffffff;stroke-width:0.2;stroke-miterlimit:4;stroke-dasharray:none;stroke-opacity:1"
           d="m 178.08063,360.23542 7.1277,-0.26459 6.48229,0.39688"
           id="path1039"
           inkscape:connector-curvature="0"
           sodipodi:nodetypes="ccc" />
        <path
           style="fill:#0e7a3c;fill-opacity:1;stroke:#ffffff;stroke-width:0.2;stroke-miterlimit:4;stroke-dasharray:none;stroke-opacity:1"
           d="m 178.19687,363.02959 6.69208,0.73093 6.87114,-0.92604"
           id="path1041"
           inkscape:connector-curvature="0"
           sodipodi:nodetypes="ccc" />
        <path
           style="fill:#0e7a3c;fill-opacity:1;stroke:#ffffff;stroke-width:0.2;stroke-miterlimit:4;stroke-dasharray:none;stroke-opacity:1"
           d="m 179.51176,355.38739 v 2.51355"
           id="path1055"
           inkscape:connector-curvature="0" />
        <path
           style="fill:#0e7a3c;fill-opacity:1;stroke:#ffffff;stroke-width:0.2;stroke-miterlimit:4;stroke-dasharray:none;stroke-opacity:1"
           d="m 183.04489,357.29428 0.0468,2.67655"
           id="path1057"
           inkscape:connector-curvature="0"
           sodipodi:nodetypes="cc" />
        <path
           style="fill:#0e7a3c;fill-opacity:1;stroke:#ffffff;stroke-width:0.2;stroke-miterlimit:4;stroke-dasharray:none;stroke-opacity:1"
           d="m 179.55854,360.17259 v 3.07481"
           id="path1059"
           inkscape:connector-curvature="0"
           sodipodi:nodetypes="cc" />
        <path
           style="fill:#0e7a3c;fill-opacity:1;stroke:#ffffff;stroke-width:0.2;stroke-miterlimit:4;stroke-dasharray:none;stroke-opacity:1"
           d="m 183.22396,363.675 v 2.24093"
           id="path1061"
           inkscape:connector-curvature="0"
           sodipodi:nodetypes="cc" />
        <path
           style="fill:#0e7a3c;fill-opacity:1;stroke:#ffffff;stroke-width:0.2;stroke-miterlimit:4;stroke-dasharray:none;stroke-opacity:1"
           d="m 186.79583,357.19271 v 2.77812"
           id="path1063"
           inkscape:connector-curvature="0" />
        <path
           style="fill:#0e7a3c;fill-opacity:1;stroke:#ffffff;stroke-width:0.2;stroke-miterlimit:4;stroke-dasharray:none;stroke-opacity:1"
           d="m 190.35166,355.28583 v 2.52958"
           id="path1065"
           inkscape:connector-curvature="0"
           sodipodi:nodetypes="cc" />
        <path
           style="fill:#0e7a3c;fill-opacity:1;stroke:#ffffff;stroke-width:0.2;stroke-miterlimit:4;stroke-dasharray:none;stroke-opacity:1"
           d="m 190.37573,360.21937 -0.0468,2.94251"
           id="path1067"
           inkscape:connector-curvature="0"
           sodipodi:nodetypes="cc" />
        <path
           style="fill:#0e7a3c;fill-opacity:1;stroke:#ffffff;stroke-width:0.2;stroke-miterlimit:4;stroke-dasharray:none;stroke-opacity:1"
           d="m 186.79583,363.57343 0.0468,2.40533"
           id="path1069"
           inkscape:connector-curvature="0"
           sodipodi:nodetypes="cc" />
      </g>
      <g
         transform="matrix(-1.0235443,0,0,1.0235443,266.07022,-38.209081)"
         id="g947">
        <path
           style="opacity:1;fill:#ed4020;fill-opacity:1;stroke:#ffffff;stroke-width:0.16042696;stroke-miterlimit:4;stroke-dasharray:none;stroke-opacity:1"
           d="m 185.26443,338.9816 a 6.0535608,6.0535608 0 0 0 -6.05353,6.05352 6.0535608,6.0535608 0 0 0 6.05353,6.05354 6.0535608,6.0535608 0 0 0 6.05355,-6.05354 6.0535608,6.0535608 0 0 0 -6.05355,-6.05352 z m 0,1.0803 a 4.9730263,4.9730263 0 0 1 4.97323,4.97322 4.9730263,4.9730263 0 0 1 -4.97323,4.97284 4.9730263,4.9730263 0 0 1 -4.97284,-4.97284 4.9730263,4.9730263 0 0 1 4.97284,-4.97322 z"
           id="circle1151"
           inkscape:connector-curvature="0" />
        <path
           sodipodi:nodetypes="ccccc"
           inkscape:connector-curvature="0"
           id="path941"
           d="m 181.46726,342.34659 1.30984,-1.34822 6.45735,6.75789 -1.38166,1.24622 z"
           style="opacity:1;fill:#ffffff;fill-opacity:1;stroke:none;stroke-width:0.19914894;stroke-miterlimit:4;stroke-dasharray:none;stroke-opacity:1" />
        <path
           style="opacity:1;fill:#ed4020;fill-opacity:1;stroke:none;stroke-width:0.17999999;stroke-miterlimit:4;stroke-dasharray:none;stroke-opacity:1"
           d="m 181.29019,341.66354 0.56127,-1.02897 7.39,7.57709 -0.56127,1.21607 z"
           id="path936"
           inkscape:connector-curvature="0"
           sodipodi:nodetypes="ccccc" />
      </g>
    </g>
  </g>
</svg>
